<?xml version="1.0" encoding="UTF-8"?>
<svg width="304.07" height="775.18" version="1.1" viewBox="0 0 304.06674 775.1825" xmlns="http://www.w3.org/2000/svg">
 <path d="m111.68 770.01c-5.9359-0.65011-15.438-2.3224-21.116-3.7163-19.008-4.6663-28.396-8.7546-36.199-15.763-2.4332-2.1854-5.7525-4.9842-7.3761-6.2197-3.7833-2.8787-8.7741-13.172-9.1088-18.786-0.31106-5.2182 1.0958-10.905 3.5507-14.353 2.4442-3.4326 12.893-11.108 21.08-15.485 8.1396-4.3516 12.569-8.0141 12.569-10.393 0-1.4003-1.4839-2.2586-6.804-3.9354-16.38-5.1628-27.476-12.391-41.442-26.994-7.2831-7.6158-13.882-19.007-17.947-30.978-0.82462-2.4289-1.8565-4.8488-2.2932-5.3776-1.7265-2.0911-3.994-13.605-4.2551-21.608-0.15159-4.6455-0.54632-9.5021-0.87716-10.792-1.0457-4.0785 1.9632-25.417 4.5084-31.971 1.2892-3.3203 3.0131-8.4437 3.8309-11.385 0.81779-2.9417 1.9036-5.6061 2.413-5.9209s0.92615-1.2973 0.92615-2.1833c0-3.3332 14.338-28.953 19.568-34.966 3.0762-3.5364 14.266-18.683 13.802-18.683-0.29122 0 1.0554-1.4319 2.9925-3.1819s3.7332-3.1419 3.9912-3.093c0.54681 0.10364 2.5683-1.5124 11.521-9.21 9.5909-8.2466 13.834-11.467 18.041-13.694 4.1301-2.1864 12.848-9.14 16.247-12.96 5.3579-6.02 14.356-21.174 17.375-29.263 1.5777-4.2263 1.5661-4.3892-0.66568-9.3848-1.2492-2.7961-3.5558-6.3805-5.1259-7.9653-4.9814-5.0282-7.6-14.152-7.6316-26.59-0.0327-12.87 2.4602-17.595 18.043-34.202 2.9679-3.1628 5.3962-6.2433 5.3962-6.8455s-1.8422-4.6755-4.0937-9.0516c-4.6129-8.9657-4.9678-10.11-6.6775-21.524-1.0155-6.7795-1.0066-11.614 0.052-28.154 1.3958-21.81 1.918-27.197 3.2547-33.577 4.6766-22.321 9.6512-49.226 9.8039-53.024 0.17259-4.2932 0.68551-13.641 3.2956-60.063 1.4811-26.342 1.3928-36.699-0.33545-39.337-1.2266-1.872-1.4247-4.368-1.0993-13.851 0.21834-6.3619 0.49116-20.013 0.60627-30.337 0.26757-23.997 0.31288-24.102 12.425-28.821 10.119-3.9431 14.956-3.3632 23.448 2.8108l3.6091 2.6242 0.22221 33.747c0.21608 32.815 0.17006 33.79-1.6655 35.286-1.7646 1.4381-1.8741 2.5093-1.6797 16.423 0.11438 8.1867 0.63235 20.712 1.151 27.833s0.86166 14.934 0.76216 17.362c-0.2801 6.8324 1.0993 27.391 2.1536 32.099 0.52025 2.3227 1.1124 5.7013 1.3159 7.5078 1.111 9.8626 2.6478 20.388 4.3163 29.562 5.3359 29.339 8.2217 52.534 8.2422 66.247 0.0207 13.897-1.7804 22.284-7.389 34.408-4.6717 10.098-4.3707 11.01 7.5096 22.755 10.771 10.648 12.827 14.31 14.043 25.015 0.87836 7.7302-0.21793 17.492-2.6298 23.416-1.9693 4.8374-6.3628 10.835-9.2394 12.613-1.9715 1.2184-3.2152 2.7322-3.2152 3.9132 0 1.0594-0.48866 3.5571-1.0859 5.5505-1.0443 3.4855-0.87357 4.04 4.4549 14.471 5.7921 11.338 7.0241 13.023 17.747 24.274 5.3881 5.6534 17.445 15.496 28.275 23.082 13.383 9.374 29.256 24.019 37.071 34.202 8.8407 11.52 10.135 13.463 14.411 21.629 2.4326 4.6455 4.7484 8.8686 5.1463 9.3848s1.2197 2.6277 1.8263 4.6924 1.9166 6.499 2.9112 9.854c0.99462 3.3551 2.479 8.3681 3.2986 11.14 3.0324 10.256 3.6655 36.775 1.0482 43.908-0.72803 1.9839-1.8592 6.5634-2.5136 10.177-4.1614 22.974-18.02 41.965-39.21 53.732-5.5177 3.0641-12.355 6.4428-15.194 7.5083-12.671 4.7559-18.561 6.8153-22.054 7.712-6.0142 1.5438-6.6939 2.3258-3.794 4.3652 1.3769 0.96832 3.6385 2.6463 5.0257 3.7289s4.0959 2.2158 6.0192 2.5182c9.2239 1.4504 24.848 11.201 26.977 16.835 0.63962 1.6932 1.9753 5.0855 2.9681 7.5385 1.59 3.9285 1.6803 5.177 0.75766 10.475-1.0793 6.1979-3.8331 10.407-12.64 19.319-7.3779 7.4661-29.498 16.564-51.122 21.025-20.093 4.1458-59.606 5.5161-83.525 2.8966zm54.901-5.1578c17.519-1.2582 26.305-2.4653 34.705-4.768 3.6028-0.98764 7.3398-1.7957 8.3045-1.7957s3.0848-0.605 4.7112-1.3444c1.6265-0.73945 4.8577-1.971 7.1804-2.7367 13.507-4.4531 24.839-12.328 29.461-20.474l1.7759-3.1298-4.0993 3.7539c-2.2546 2.0647-4.3207 3.9869-4.5913 4.2717-4.6363 4.8795-29.937 14.504-45.539 17.323-4.6455 0.83935-10.378 1.9397-12.74 2.4453-11.127 2.382-57.645 3.5255-71.957 1.7688-30.49-3.7426-59.35-15.63-67.836-27.941-2.9442-4.2712-3.4222-3.0617-0.87197 2.2064 4.6307 9.5657 16.33 17.909 31.873 22.729 18.778 5.8239 30.141 7.6079 53.024 8.3248 9.2909 0.29107 16.996 0.61857 17.122 0.72779 0.12611 0.10921 1.393 0.0753 2.8154-0.0755 1.4224-0.15071 8.9209-0.72896 16.663-1.285zm-3.2847-7.5172c14.17-0.94322 32.538-3.6703 40.355-5.9913 29.096-8.6402 40.437-15.033 46.99-26.488 2.624-4.5863 2.921-5.7993 2.4316-9.9314-0.36439-3.0767-1.4624-5.89-3.1702-8.1221l-2.6127-3.415-0.28342 5.4621c-0.25954 5.0019-0.50038 5.5377-2.8587 6.3598-2.2454 0.78277-2.5278 1.3046-2.2044 4.0745 0.44352 3.7991-1.8538 5.4675-7.7148 5.6028-3.3585 0.0775-3.7866 0.37108-4.4874 3.0767-1.5483 5.9776-9.4709 9.3616-15.352 6.5572-2.9616-1.4123-3.1601-1.396-3.6997 0.30399-0.31357 0.988-1.8469 2.8707-3.4074 4.1838-3.5187 2.9608-9.5259 3.2252-12.979 0.57127l-2.309-1.7744-3.9852 4.2794-3.9852 4.2794-5.7651-0.60258c-4.1648-0.4353-6.5313-1.2473-8.5253-2.9251l-2.7602-2.3226-2.6532 2.9695c-2.3591 2.6403-3.3274 3.0124-8.7346 3.3567-5.9558 0.37924-6.1492 0.31738-9.3687-2.9977-3.7939-3.9064-4.1216-4.0159-4.7564-1.5884-1.1194 4.2805-13.046 7.1338-18.351 4.3903-1.6408-0.84847-2.9832-1.9843-2.9832-2.5241 0-0.53977-0.59576-1.5772-1.3239-2.3053-0.72816-0.72815-1.5135-1.8594-1.7452-2.5138-0.27981-0.79023-1.2533-0.30709-2.8985 1.4386-1.3625 1.4456-4.0092 3.2685-5.8817 4.0509-6.2709 2.6202-14.428-0.55775-14.428-5.621 0-3.3075-0.90341-3.5268-4.1929-1.0178-5.1999 3.9661-15.496 2.2122-15.529-2.6455-0.02755-4.0032-1.1483-4.6077-7.2605-3.9162-5.3176 0.60162-5.7597 0.50104-6.9446-1.5798-0.69597-1.2223-1.2654-3.8605-1.2654-5.8626 0-3.3001-0.24772-3.6675-2.6512-3.932-3.4933-0.38439-5.0709-1.8-5.8232-5.225-0.4433-2.0183-0.15396-3.3263 1.0236-4.6275 1.568-1.7326 1.5614-1.8138-0.14621-1.8122-1.0826 9.4e-4 -2.786 1.5818-4.3184 4.0076-2.096 3.3178-2.4036 4.5668-1.7912 7.2715 0.96705 4.2712 3.1771 8.4635 5.6335 10.686 1.0852 0.98206 1.973 2.3536 1.973 3.0478 0 0.69424 0.61891 1.2623 1.3754 1.2623 0.75645 0 2.6714 1.267 4.2555 2.8154 1.5841 1.5485 3.3325 2.8154 3.8854 2.8154s2.26 1.0558 3.7936 2.3462 3.3357 2.3462 4.0047 2.3462c0.66903 0 3.0649 0.81681 5.3242 1.8151 8.0948 3.5769 32.633 9.0621 47.747 10.673 6.4484 0.68733 27.896 0.52633 40.355-0.30292zm-26.832-16.515c1.8802-1.4897 3.7513-3.9754 4.158-5.5239 0.40674-1.5485 1.3462-2.8154 2.0876-2.8154 0.74144 0 1.9909 1.2669 2.7766 2.8154 4.8328 9.5245 5.6309 10.018 12.042 7.4533 3.4299-1.3724 5.5747-4.1252 7.0867-9.0956 0.74688-2.4552 1.6587-1.9873 5.0118 2.5721 3.2857 4.4677 7.7356 6.4396 12.419 5.503 3.5149-0.70298 5.87-5.6749 5.0669-10.697-0.53526-3.3473-0.39719-3.7126 1.4032-3.7126 1.0983 0 1.9969 0.46128 1.9969 1.0251 0 1.6478 3.5682 5.7176 6.2184 7.0925 7.6842 3.9866 13.945-2.2556 8.81-8.7838-3.7447-4.7607 0.42258-5.5385 5.2546-0.98076 1.7758 1.675 4.7662 3.5778 6.6454 4.2283 2.9012 1.0044 3.756 0.96041 5.6669-0.29167 1.8888-1.2376 2.1454-1.9524 1.597-4.4492-0.35934-1.6361-1.2772-3.9268-2.0397-5.0904-1.2247-1.8692-1.2229-2.1785 0.0159-2.6538 0.77121-0.29594 3.0279 0.33322 5.0148 1.3982 4.0537 2.1727 7.8668 2.496 9.5528 0.81006 1.7355-1.7355 1.4629-2.1379-3.5662-5.2641-4.3357-2.6952-5.8064-5.0106-3.9222-6.1751 0.42359-0.26179 2.0625 0.30994 3.642 1.2705 4.3773 2.662 9.665 2.8651 9.665 0.37126 0-1.804-1.791-3.3134-7.2732-6.1296-6.025-3.0951-4.9744-4.8207 1.5502-2.5462 5.9933 2.0893 3.9268-0.13454-3.1721-3.4136-4.0015-1.8483-7.3499-3.2334-7.4409-3.0778-7.5935 12.982-17.277 19.544-36.304 24.603-11.842 3.1484-25.333 4.3018-50.325 4.3027-22.27 8.5e-4 -32.291-1.2412-45.315-5.6164-12.819-4.3064-18.683-8.346-23.514-16.197l-2.8013-4.5527-5.5928 2.9809c-3.076 1.6395-5.3767 3.3306-5.1126 3.7579 0.26409 0.4273 0.99454 0.58865 1.6232 0.35853 0.62867-0.23011 1.7494-0.0327 2.4904 0.4387 1.1166 0.71032 1.1371 1.1104 0.11971 2.3363-0.67518 0.81359-1.7358 1.4792-2.3568 1.4792-0.62107 0-2.0465 0.97639-3.1676 2.1698-1.7674 1.8813-1.8702 2.3997-0.77355 3.8995 1.28 1.7506 2.2145 1.744 10.227-0.0723 1.9663-0.44568 2.5808-0.23482 2.5808 0.8855 0 0.80877-0.52789 1.8082-1.1731 2.221-5.389 3.4476-5.5296 8.7276-0.23247 8.7276 4.0307 0 6.8115-1.1296 10.232-4.1566 3.1546-2.7913 4.1521-2.9824 4.9339-0.94518 0.33155 0.86402-0.16301 1.9836-1.2026 2.7223-0.97114 0.69011-2.5709 2.774-3.555 4.6309-1.7284 3.2613-1.7314 3.4401-0.08916 5.2547 3.06 3.3813 7.3278 2.4886 13.782-2.883 4.9198-4.0943 5.9068-4.5764 7.0431-3.4402s1.0867 1.7305-0.35387 4.2405c-1.6297 2.8397-1.6221 2.9906 0.28181 5.5518 3.7332 5.0219 11.64 3.6464 15.553-2.7058 3.2606-5.2928 6.3957-4.4745 6.3957 1.6695 0 1.2527 1.1614 3.583 2.5808 5.1785 2.2765 2.5589 3.0381 2.8496 6.4595 2.4657 2.3618-0.26501 5.2155-1.4944 7.2972-3.1437zm25.894-21.002c21.568-2.5449 40.724-7.541 45.346-11.827 1.2012-1.1138 3.0193-2.2902 4.0403-2.6143s3.4545-2.2258 5.4077-4.226c2.5928-2.6553 3.4437-4.2372 3.1528-5.8614-0.38135-2.1291-0.44695-2.1-1.5286 0.67911-1.8402 4.728-10.538 10.681-20.537 14.056-29.353 9.9076-77.808 10.92-102.4 2.1385-8.8026-3.1426-16.279-8.5513-21.211-15.345-1.0114-1.393-1.3692-1.514-1.3878-0.46924-0.01381 0.77425 1.5723 3.5193 3.5248 6.1001 4.9389 6.5284 14.785 11.427 29.757 14.806 6.194 1.3977 12.74 2.6882 14.546 2.8677 6.9499 0.69061 34.585 0.48654 41.293-0.30492zm11.731-7.2915c17.755-2.9172 32.998-8.8709 38.907-15.196 3.3706-3.6083 3.4422-4.2313 0.95473-8.3112-1.0417-1.7086-1.6425-3.5134-1.3352-4.0107 0.57232-0.92604-3.6391-0.50293-11.78 1.1834-10.253 2.1241-14.767 2.5957-33.798 3.5308-25.03 1.2299-50.837 0.0719-71.718-3.2181-8.2243-1.2958-15.087-2.356-15.25-2.356-0.1633 0-0.31034 0.73905-0.32676 1.6423-0.01641 0.90328-0.64989 2.4621-1.4077 3.464-1.887 2.4948-1.7277 4.6094 0.49908 6.6246 1.0323 0.93425 1.877 2.2436 1.877 2.9097s0.99694 1.762 2.2154 2.4354c1.2185 0.67337 3.9303 2.37 6.0262 3.7703 4.8865 3.2646 12.887 5.923 21.79 7.2397 3.8712 0.57261 9.3613 1.4143 12.2 1.8704 9.3278 1.4986 37.758 0.62095 51.147-1.579zm-26.547-32.33c-3.9504-3.7619-7.6772-7.4573-8.2817-8.2121-1.4718-1.8375-3.5558-0.13262-6.1893 5.0634-1.0639 2.0992-2.1944 4.0278-2.5122 4.2859-0.31779 0.25808-1.0916 1.3912-1.7196 2.518-1.4643 2.6274-1.2383 2.6752 13.983 2.961l11.903 0.22349-7.1826-6.8398zm35.346-14.633c1.9573-0.3145 4.6614 3.4567 6.7631 9.432 2.1934 6.236 3.821 5.6897 14.369-4.8226 7.3299-7.3049 10.097-9.4854 12.039-9.4854 2.8885 0 4.8632 3.371 5.9068 10.084 0.34061 2.191 1.0068 4.2231 1.4805 4.5158 1.0352 0.63979 8.6889-7.0684 12.503-12.592 3.8426-5.5651 8.6196-9.5156 11.506-9.5156 2.4086 0 2.4368 0.0782 1.9007 5.2722l-0.54414 5.2722 2.0552-1.8892c1.1304-1.039 3.2589-2.8837 4.7301-4.0991s3.5828-3.2429 4.6924-4.5053 2.8621-3.2113 3.8944-4.3308 2.5266-3.254 3.3207-4.7432c0.83913-1.5738 2.2146-2.7078 3.2847-2.7078 1.4988 0 1.8951 0.75091 2.1321 4.0402l0.29109 4.0402 3.5709-4.5094c1.964-2.4802 5.3478-7.888 7.5197-12.017s4.3403-7.909 4.8189-8.3994c0.47859-0.49036 0.87016-1.2192 0.87016-1.6197 0-0.40049-2.7005 1.9067-6.0011 5.1271-5.3671 5.2366-20.351 14.746-23.236 14.746-0.55453 0-2.5438 0.83506-4.4207 1.8557-6.0978 3.316-23.201 8.4158-36.448 10.868-7.1222 1.3185-16.117 3.0821-19.988 3.919-5.7496 1.2431-12.796 1.5082-38.478 1.4475-30.988-0.0732-40.688-0.60746-63.816-3.5151-11.106-1.3963-34.267-5.7358-35.857-6.7185-0.40538-0.25054-1.4777-0.62662-2.3829-0.83574-9.1918-2.1234-14.211-3.731-21.717-6.9562-10.306-4.4279-18.855-9.1078-20.519-11.232-2.2356-2.8549-0.08895 2.0031 2.2781 5.1553 1.1994 1.5972 2.1807 3.2255 2.1807 3.6184 0 1.297 8.5377 11.736 9.6194 11.761 0.38712 9e-3 0.70386-0.8031 0.70386-1.805 0-3.6728 2.124-2.916 8.1547 2.9055 3.3927 3.275 6.8522 6.7459 7.6878 7.7131 0.83561 0.96715 3.2085 3.5523 5.2732 5.7448s4.2985 4.6741 4.964 5.5147c0.66555 0.84062 1.8299 1.5284 2.5874 1.5284 1.1307 0 1.2758-1.1343 0.81053-6.3347-0.57268-6.4011 0.5164-11.496 2.4573-11.496 1.28 0 15.511 14.615 17.592 18.067 0.85625 1.4201 2.3101 2.8211 3.2307 3.1133 0.92065 0.2922 1.6739 1.1363 1.6739 1.8758 0 3.9678 3.2159-0.98654 8.1126-12.498 1.7814-4.1878 4.2058-3.9023 7.9693 0.93848 1.7055 2.1937 5.49 6.3113 8.4099 9.1502s5.5587 5.9007 5.864 6.804c0.40242 1.1907 1.5675 1.6423 4.2367 1.6423 3.0566 0 3.7734-0.36563 4.2221-2.1536 0.68414-2.7258 7.7747-13.754 10.194-15.856 1.7511-1.5209 2.0962-1.3288 8.4299 4.6924 3.6322 3.453 7.6598 7.334 8.9501 8.6244s2.7175 2.2406 3.1715 2.1116c0.45399-0.12904 0.82544 0.15753 0.82544 0.63682 0 0.4793 0.69136 1.5628 1.5364 2.4078 1.4228 1.4228 2.3237 0.75159 12.191-9.0831 5.86-5.8407 11.455-10.748 12.433-10.905zm5.1335 17.644c1.1124-0.44871 1.4947-0.84261 0.84951-0.87532-0.64521-0.0327-1.1731-0.73867-1.1731-1.5688 0-1.7177-3.9523-10.691-4.7089-10.691-0.27321 0-3.8654 3.4256-7.9826 7.6124l-7.4858 7.6124 9.2391-0.637c5.0815-0.35034 10.149-1.0041 11.262-1.4528zm-76.34 0.56999c0-1.0316-13.437-13.632-14.1-13.222-0.42487 0.26258-1.4898 2.637-2.3665 5.2766-1.0966 3.3015-2.2172 4.9758-3.5911 5.3651-1.3406 0.37988 0.16235 0.92155 4.5723 1.6479 6.6133 1.0893 15.485 1.6234 15.485 0.93231zm97.557-3.7731c9.538-1.9968 10.237-2.8212 7.9917-9.4264-0.97175-2.8589-2.2713-5.198-2.8879-5.198s-3.3798 2.3536-6.1404 5.2302-6.4927 6.7402-8.2935 8.5857l-3.2742 3.3556 2.8049-0.54139c1.5427-0.29776 5.9524-1.2003 9.7993-2.0057zm-128.53-1.1132c0-0.31129-1.4409-2.1061-3.202-3.9885s-4.9256-5.323-7.0323-7.6457l-3.8303-4.2232 0.2283 6.8357c0.21514 6.4419 0.36346 6.8665 2.5745 7.3706 1.2904 0.2942 3.6131 0.87528 5.1616 1.2913 3.5235 0.94666 6.1001 1.0986 6.1001 0.3597zm156.89-7.8432c3.7254-1.6479 4.3254-2.3665 5.7502-6.8865 1.8324-5.813 1.9274-6.6081 0.699-5.8489-1.6319 1.0086-12.276 14.575-11.435 14.575 0.45468 0 2.6984-0.82795 4.9861-1.8399zm-192.03-6.841c-1.484-1.1614-3.9412-3.3005-5.4604-4.7537-1.5193-1.4532-3.0055-2.3989-3.3028-2.1017-0.83582 0.83582 8.7081 8.9354 10.554 8.9565 0.49916 6e-3 -0.30659-0.9398-1.7906-2.1012zm217.68-6.5756c3.8642-2.5226 4.7342-3.604 4.9827-6.1931l0.30102-3.1368-3.3706 2.6738c-3.3856 2.6857-8.6834 9.7124-7.3226 9.7124 0.40034 0 2.8346-1.3753 5.4096-3.0563zm-62.766-2.5264c4.7131-0.52155 9.5946-1.3381 10.848-1.8146 1.2532-0.47646 5.6321-1.3716 9.731-1.9893 4.0989-0.61765 8.9306-1.7414 10.737-2.4971 1.8066-0.75577 6.0297-2.0017 9.3848-2.7688s12.082-4.3297 19.393-7.9169c11.684-5.7328 14.126-7.3519 20.177-13.376 3.7866-3.7696 7.9137-8.7321 9.1715-11.028 1.741-3.1777 1.8943-3.8542 0.64197-2.8346-0.90466 0.73665-2.2531 2.5156-2.9965 3.9532-2.1364 4.1313-13.204 12.332-24.875 18.432-15.186 7.937-24.217 11.143-43.097 15.298-19.756 4.3483-27.01 4.9347-60.532 4.8932-31.946-0.0396-47.066-0.92105-62.878-3.6657-21.655-3.7589-38.698-7.2065-43.071-8.7126-2.6353-0.90761-7.1141-2.4056-9.953-3.3288-7.3803-2.4002-19.866-8.7777-21.359-10.91-0.69874-0.99758-1.7186-1.8138-2.2664-1.8138s-2.4686-1.293-4.2685-2.8733c-3.4905-3.0647-4.7819-3.1308-3.1939-0.1635 0.9663 1.8055 13.127 10.545 14.673 10.545 0.44505 0 1.681 0.81359 2.7466 1.808 1.0656 0.99438 3.6267 2.4292 5.6914 3.1885 25.03 9.205 30.997 10.739 53.962 13.866 13.195 1.7971 34.506 4.1234 45.047 4.9172 8.8808 0.66883 57.298-0.21371 66.286-1.2082zm-11.142-5.4676c0.14998-0.44995 1.4342-0.64762 2.8539-0.43926 2.6216 0.38477 20.468-2.6734 26.466-4.5351 1.8066-0.5608 6.452-1.802 10.323-2.7583 3.8712-0.95624 9.5725-2.5864 12.669-3.6227 3.097-1.0362 6.7922-2.1282 8.2117-2.4265 3.5196-0.73981 3.2848-2.1619-0.27082-1.6401-1.5684 0.2302-4.6922-0.0968-6.9419-0.72667-3.2388-0.90682-4.4523-1.858-5.8293-4.5696-0.95645-1.8834-1.842-3.5978-1.9679-3.8097-0.34483-0.5805-3.9943 2.903-3.9943 3.8127 0 0.43467 1.4781 2.4264 3.2847 4.426 4.0297 4.4604 4.1278 5.7544 0.43622 5.7544-2.5597 0-2.7464-0.19068-1.8418-1.881 0.84635-1.5814 0.64645-2.0452-1.2549-2.9115-2.624-1.1956-4.03-5.1634-5.2376-14.781-0.45386-3.6146-1.1194-7.048-1.479-7.6298-0.35956-0.58178-0.38616-2.1239-0.0591-3.4269 0.54431-2.1687 0.90087-2.3174 4.2152-1.7574 2.2142 0.37409 3.8618 0.22144 4.2415-0.39301 0.34152-0.55258-9.2e-4 -1.0047-0.76098-1.0047-2.0916 0-7.1752-7.4842-7.1752-10.564 0-3.6958-1.3883-2.5107-2.748 2.3457-0.7937 2.8348-1.9637 4.5101-3.9434 5.6463-2.9263 1.6795-2.8937 3.51 0.0626 3.51 2.6328 0 3.8865 2.2096 4.4719 7.8814 0.39355 3.8131 0.15308 5.7804-0.90373 7.3933-0.79198 1.2087-1.2394 3.2471-0.99417 4.5298 0.27857 1.4572-0.24166 3.1811-1.3867 4.5952l-1.8325 2.263-0.65833-2.9973c-0.36208-1.6485-1.0481-3.2383-1.5246-3.5327-1.65-1.0198-0.93489-4.9688 1.0117-5.5866 2.6534-0.84215 4.0221-3.9014 3.3495-7.4865-0.51875-2.7652-0.96465-3.121-4.5437-3.6256-2.1827-0.30772-5.199-0.84639-6.7029-1.197-2.4232-0.56499-2.6515-0.4348-2.0051 1.1436 2.4886 6.0771 0.63558 6.9793-3.5529 1.73-2.8608-3.5854-2.7498-5.914 0.32016-6.7168 2.6199-0.68512 2.3357-2.7663-0.47398-3.4715-3.2588-0.81791-2.9414-2.4301 0.47843-2.4301 1.5977 0 3.4772 0.7622 4.327 1.7547 1.1792 1.3772 2.163 1.6057 4.5725 1.0623 4.4338-0.99998 4.7839-1.3609 6.1243-6.3121 0.66732-2.4651 1.8085-5.6755 2.536-7.1343 1.1557-2.3174 1.1372-2.9354-0.14608-4.894-2.9521-4.5054-0.70545-8.7331 3.3087-6.2263 1.3462 0.84073 2.6276 0.6782 5.9792-0.75851 10.739-4.6034 17.22-3.1267 16.096 3.6673-0.30536 1.8458-0.55985 4.2348-0.56553 5.309-6e-3 1.1017-1.0064 2.4861-2.2956 3.176-2.0878 1.1174-2.1702 1.3987-0.95341 3.2558 1.159 1.7688 1.1442 2.3007-0.11413 4.0972-1.8375 2.6234-2.8539 2.6139-3.5462-0.0331-0.52869-2.0217-0.59521-2.0337-1.8397-0.33179-0.90471 1.2373-2.0373 1.6232-3.7841 1.2892-2.8201-0.53909-3.3516 1.338-1.1865 4.1902 1.5123 1.9922 2.4475 2.106 2.4475 0.29786 0-1.691 3.4668-2.8609 4.972-1.6779 0.62043 0.48764 2.2894 1.164 3.7089 1.5031 2.5634 0.61236 3.1032 1.8812 2.0112 4.7272-0.64614 1.6838-2.8565 1.9984-3.3631 0.47865-0.1945-0.58352-1.4253-0.14837-2.9316 1.0364l-2.5963 2.0423 3.2882 1.7624c2.2462 1.2039 4.2215 1.5758 6.233 1.1734 3.11-0.622 4.879 0.76278 3.9771 3.1132-0.32546 0.84813-1.5873 1.1129-3.9017 0.8188-1.8814-0.23911-5.4676-0.69133-7.9693-1.0049-3.9003-0.48892-4.4813-0.8276-4.0764-2.376 0.38826-1.4848-0.0267-1.8058-2.3336-1.8058-3.4088 0-3.257 0.50972 1.7666 5.9312 4.6894 5.0609 8.2939 5.97 10.902 2.7497 2.1138-2.6095 2.8917-2.6336 5.1955-0.16082 1.7204 1.8466 1.9716 1.871 4.7078 0.45609 2.8335-1.4652 2.902-1.4482 3.4825 0.86468 0.87571 3.4891 3.7232 2.9707 6.3717-1.16 2.1689-3.3828 2.1876-3.5522 0.48289-4.3666-0.97544-0.466-1.7735-1.4162-1.7735-2.1116 0-1.4938 2.955-1.6878 4.3568-0.28606 0.67868 0.67869 1.373 0.50265 2.2672-0.57486 1.1293-1.3607 0.89524-1.9049-1.8893-4.3929-3.015-2.6939-3.0885-2.9055-1.4309-4.1175 2.7006-1.9747 5.4615-1.6602 4.8819 0.55624-0.32614 1.2472 0.25753 2.3169 1.8242 3.3434 3.1692 2.0766 2.6922 6.0764-0.93075 7.805-2.9199 1.3932-2.8079 2.5522 0.15579 1.6116 2.1373-0.67835 5.8893-7.5883 5.1569-9.4971-0.26836-0.69932-1.2935-1.5272-2.2782-1.8397-2.2012-0.69864-2.382-4.4083-0.31551-6.4748 1.5936-1.5936 4.1561-1.9917 4.1561-0.64573 0 0.45596 0.90229 1.065 2.0051 1.3534 1.8336 0.47949 1.95 0.93907 1.3617 5.3743-0.35386 2.6675-1.3134 5.8725-2.1322 7.1222-0.81885 1.2497-1.2307 2.5304-0.91513 2.8459 1.0388 1.0388 3.1966-1.555 5.2347-6.2927 1.9456-4.5227 3.8307-6.1245 3.8307-3.2551 0 0.77425 0.42232 1.4077 0.93848 1.4077s0.93848-0.50479 0.93848-1.1217c0-0.61697 1.0896-2.2591 2.4214-3.6492 1.4507-1.5142 2.6246-4.0423 2.9283-6.306 0.45622-3.4014 0.29208-3.81-1.6441-4.0932-2.8327-0.41443-3.5008-2.6447-0.98908-3.3016 1.7982-0.47026 1.9758-1.1824 1.9758-7.923 0-6.9805-0.10015-7.3438-1.7423-6.3182-1.3856 0.86531-2.4903 0.72284-5.3962-0.69591-3.0588-1.4934-3.7044-2.3148-3.9636-5.0431-0.3012-3.1701-0.36116-3.1059-2.1931 2.3462-1.0359 3.083-2.5377 6.3356-3.3374 7.2281-1.3165 1.4694-1.3055 1.6797 0.11647 2.2254 0.90392 0.34687 2.3225-0.078 3.3426-1.0012 2.8499-2.5792 5.1507-1.5071 5.4878 2.5571 0.33684 4.0609-0.96275 4.5523-3.7027 1.3999l-1.8353-2.1116 0.60395 5.8655c0.51485 5.0002 0.38269 5.8655-0.89591 5.8655-0.82493 1e-5 -1.4999-0.65029-1.4999-1.4451 0-2.2239-3.6484-8.8629-4.9461-9.0005-3.8177-0.40474-10.07-0.31636-10.07 0.14236 0 0.29777 1.4778 1.0758 3.284 1.7289 3.4866 1.2608 5.642 4.0935 4.7947 6.3014-0.28163 0.73391-1.1588 1.3344-1.9492 1.3344-0.79044 0-1.4372 0.79885-1.4372 1.7752 0 1.8232-3.9306 3.4987-5.6766 2.4197-1.0598-0.65497 0.34285-3.7018 3.0972-6.728l1.8785-2.0639-2.2304-0.48883c-1.2267-0.26884-3.2861-0.60704-4.5766-0.75155-1.633-0.18286-2.3462-0.83331-2.3462-2.1397 0-2.5014-1.896-3.5917-4.149-2.3859-2.5282 1.3531-2.5757 1.3317-4.1778-1.8798-1.3847-2.7758-1.3556-2.8846 1.0119-3.7847 2.5353-0.96391 6.9051-0.0751 6.7656 1.3761-0.0441 0.45845 0.4838 1.191 1.1731 1.628 2.1646 1.3721 5.5504 0.89826 8.4783-1.1866 1.5523-1.1054 3.7291-2.1072 4.8373-2.2264 1.1082-0.11918 2.3316-0.27058 2.7187-0.33646 1.055-0.17953 0.84824-6.4891-0.23462-7.1584-0.53339-0.32966-0.93848 0.46931-0.93848 1.851 0 1.3902-0.66081 2.6846-1.5434 3.0233-2.1798 0.83648-4.1119-2.1713-3.4667-5.397 0.48279-2.414 0.24851-2.6899-2.7632-3.2549-2.0038-0.37592-4.1486-0.15823-5.4844 0.55667-3.1944 1.7096-16.856 5.415-34.262 9.293-11.267 2.5103-34.653 5.824-43.512 6.1656-3.8712 0.14927-13.542 0.7943-21.491 1.4334-13.702 1.1016-39.052 0.81398-55.933-0.63466l-6.5693-0.56375 4.8835 2.5069c2.6859 1.3788 5.1306 3.2853 5.4326 4.2368 1.0998 3.465 2.7758 3.9172 7.1545 1.9305 2.2629-1.0267 4.8534-1.8761 5.7567-1.8874 2.4846-0.0312 1.9663 2.7181-0.70385 3.7333-1.2904 0.49061-2.3948 1.4304-2.4543 2.0884-0.21093 2.3349 0.28169 4.962 1.0879 5.802 1.0188 1.0614 3.7125-1.0345 3.7125-2.8887 0-1.5132 4.317-5.6045 6.804-6.448 2.1902-0.74292 2.0804-2.0421-0.23462-2.7768-1.0323-0.32765-1.877-1.2459-1.877-2.0406 0-0.93197 0.52695-1.2427 1.4845-0.87523 0.81646 0.31331 2.2781 0.56965 3.2481 0.56965s2.6176 0.91657 3.6612 2.0368c1.8427 1.978 1.9523 1.9873 3.7905 0.32379 1.8613-1.6844 1.8929-1.6621 1.8929 1.3344 0 1.6761 0.84463 4.1212 1.877 5.4336 1.0323 1.3124 1.877 2.7515 1.877 3.1981 0 1.7117-3.171 0.69416-6.2435-2.0035-3.5391-3.1073-6.5632-3.5206-10.576-1.4453-3.4482 1.7831-4.4077 4.9835-1.6136 5.3819 1.9814 0.28249 2.1528 1.018 1.3673 5.8651-0.23766 1.4665 0.47017 1.9805 3.6071 2.6191 5.5512 1.1301 5.9322 3.1637 1.4006 7.4756l-3.711 3.531 1.7855 3.5022c2.2784 4.4689 1.1203 5.8478-5.3229 6.338-2.5434 0.19352-4.9411 0.38916-5.3282 0.43475-0.38713 0.0456-0.70386 0.50522-0.70386 1.0214s1.4781 0.93848 3.2847 0.93848c4.5452 0 4.4354 2.5145-0.14731 3.3742-4.1474 0.77805-8.0313 2.6807-7.1899 3.5222 1.2178 1.2178 6.0407 0.5688 10.159-1.3672 2.3152-1.0883 4.8445-1.735 5.6206-1.4372 0.86114 0.33045 1.4112 5e-3 1.4112-0.83675 0-1.6645 2.0116-1.8067 3.5662-0.25209 1.691 1.691 1.4226-2.0631-0.31139-4.3556-1.7437-2.3053-1.7687-6.2006-0.0549-8.5443 1.259-1.7218 1.41-1.7304 3.124-0.17936 0.99054 0.89642 2.2531 1.6299 2.8057 1.6299 1.2826 0 2.0922-8.544 0.95202-10.048-0.91131-1.2018-0.19709-3.0912 1.1685-3.0912 0.44882 0 1.4788 0.6628 2.2889 1.4729 1.0884 1.0884 1.2284 1.9297 0.53628 3.223-0.51514 0.96255-0.94309 3.5727-0.95099 5.8003-0.019 5.346-1.0168 6.8122-4.108 6.0363-3.5664-0.89512-3.1724 1.5517 0.47142 2.9271l2.9184 1.1016-2.1058 3.562c-1.1582 1.9591-3.1504 4.4587-4.4271 5.5547-2.0067 1.7227-2.7594 1.8582-5.5549 1.0003-2.619-0.80378-3.7423-0.69199-5.9093 0.58808-3.3082 1.9542-9.9366 2.0361-13.52 0.16702-3.352-1.7482-5.412-1.8429-2.917-0.13413 3.9383 2.6972 12.443 4.6302 17.554 3.9895 8.4137-1.0548 14.214-3.8948 16.59-8.1231 2.3566-4.193 4.4288-4.6669 8.3342-1.9058 3.1365 2.2175 6.766 3.3422 6.766 2.0967 0-0.50844-1.5804-1.6983-3.5119-2.6441-4.3467-2.1284-6.0795-5.2933-5.5116-10.067 0.54296-4.5632 1.9711-5.488 5.924-3.8364 3.5441 1.4808 3.9776 0.99507 1.1532-1.292-3.0744-2.4895-3.4229-11.544-0.65536-17.025 2.2216-4.3997 2.7814-4.6093 8.5691-3.2074 2.4913 0.60341 2.6086 0.511 1.6423-1.2944-1.7882-3.3413-1.2358-5.5128 1.713-6.7343 3.196-1.3238 8.1157-0.52543 8.8697 1.4394 0.54566 1.422 3.3925 1.9049 3.3925 0.57547 0-0.42618-1.091-1.7987-2.4244-3.05-2.1108-1.9808-3.315-2.2752-9.3094-2.2752-5.8484 0-7.2234 0.3179-9.1325 2.1116-1.2361 1.1614-3.1252 2.1116-4.1981 2.1116s-2.1938 0.63347-2.4909 1.4077c-0.81853 2.133-5.4054 1.6827-8.5588-0.84038-2.473-1.9786-2.6911-2.5416-1.877-4.8456 1.2733-3.6035 2.9097-3.8445 3.5734-0.52622 0.9777 4.8885 6.4181 5.0458 12.001 0.34703 2.8284-2.3806 3.6971-2.5811 11.187-2.5811 9.0028 0 11.697 0.96449 14.538 5.2041 1.7785 2.6546 5.1389 3.8295 5.1389 1.7968 0-0.53687 1.7316-2.5751 3.8481-4.5293 3.6268-3.3489 4.0932-3.516 8.1112-2.9062 3.1801 0.48262 4.9443 1.4271 6.9444 3.718 3.3179 3.8001 3.348 4.9715 0.19165 7.4542-2.0341 1.6-3.2866 1.8526-6.8446 1.3807-4.0349-0.53526-4.4366-0.39831-5.4673 1.8637-0.6118 1.3428-1.7549 2.4414-2.5402 2.4414-1.6181 0-1.9542-3.3178-0.43148-4.2589 0.54801-0.33869 1.3913-1.6545 1.874-2.9241 0.81116-2.1335 1.284-2.2865 6.245-2.0204 4.227 0.22674 5.4303-0.0179 5.6636-1.1518 0.20858-1.0136-1.0035-1.7874-4.0952-2.6143-4.0945-1.0951-4.5408-1.0343-6.5991 0.89946-1.2142 1.1407-2.2077 2.6241-2.2077 3.2965 0 2.2412-4.3643 4.237-8.5639 3.9164-3.5901-0.2741-4.0442-0.0705-4.5537 2.0417-0.48886 2.0269-1.1594 2.3848-4.927 2.6298-3.6643 0.23832-4.408 0.61169-4.6546 2.3366-0.39484 2.7621-3.5504 3.3196-4.2234 0.74605-0.28171-1.0772-1.273-1.9586-2.2029-1.9586s-2.3139-0.23911-3.0755-0.53137c-0.91343-0.35051-1.9066 0.51475-2.918 2.5422-2.0724 4.1543-0.50073 13.005 2.3094 13.005 1.0408 0 1.5936 0.48836 1.3301 1.175-0.24799 0.64626 0.39874 1.7056 1.4372 2.3541 2.867 1.7905 2.5062-1.1272-0.45813-3.7046-2.6886-2.3377-2.9876-5.0605-0.88526-8.062 2.5956-3.7057 5.3729-2.3333 3.2617 1.6117-0.68495 1.2798-0.4542 2.1081 0.93847 3.3684 1.3979 1.2651 1.8468 2.8905 1.8468 6.6875 0 5.374 0.61343 5.8873 4.2149 3.5276 2.7152-1.779 4.2314-1.0852 4.2314 1.9365 0 3.4002 0.97108 5.183 2.8231 5.183 1.3447 0 5.6232 5.3798 5.6232 7.0706 0 0.98519-5.185 3.6389-8.2925 4.2441l-3.4385 0.66969 4.0312 0.10792c3.1373 0.084 4.5514-0.41232 6.3774-2.2383 2.4094-2.4094 5.4561-3.0709 6.484-1.4077 0.31901 0.51616 1.4423 0.93848 2.4963 0.93848 1.7601 0 1.8894-0.47803 1.587-5.8655l-0.32932-5.8655 3.9885 0.17768c5.284 0.23539 5.3255-1.8584 0.14271-7.1989-2.794-2.879-3.5638-4.2448-2.8148-4.9939 0.97451-0.97451 2.0314-0.75603 9.1594 1.8934 0.60005 0.22304 1.2901-0.36454 1.5335-1.3057 0.24926-0.96403 0.49-0.37942 0.55133 1.3388 0.0754 2.1117-0.31699 3.05-1.2754 3.05-1.0666 0-1.2382 0.69996-0.74802 3.0501 1.3967 6.6957 1.0418 7.7162-2.7947 8.0337-3.8675 0.32009-3.9552 0.42525-2.5478 3.0551 0.68026 1.2711 1.9697 1.8153 4.3014 1.8153 4.0773 0 3.9256 2.1934-0.18361 2.653-3.9152 0.43794-5.2033 2.0394-1.6403 2.0394 5.8613 0 8.9689-1.2375 12.602-5.018 2.0116-2.0935 3.6575-4.3096 3.6575-4.9246 0-1.6652 2.5314-2.3229 3.6682-0.95314 0.54449 0.65606 1.1033 2.2146 1.2417 3.4635 0.19169 1.7289-0.19606 2.2707-1.6252 2.2707-1.0323 0-3.1439 1.2048-4.6924 2.6773-5.1224 4.8711-9.4531 6.4759-16.342 6.0556-3.3998-0.20742-7.7124-1.1189-9.5835-2.0255-3.3661-1.631-3.4393-1.623-6.9349 0.74912-5.0623 3.4354-8.9723 3.1768-13.475-0.89113-2.0552-1.8568-3.8849-4.5127-4.2024-6.1001-0.70427-3.5214-2.2643-3.6567-2.6585-0.23069-0.31998 2.7809-1.1309 2.952-9.6817 2.0419-5.4099-0.57579-5.1772 1.2349 0.37084 2.8851 6.2427 1.8569 7.7824 3.4008 5.26 5.2745-2.8093 2.0867-14.801 0.16663-16.54-2.6485-0.42901-0.69414-3.224-0.34746-8.9278 1.1074-5.9844 1.5264-9.9143 1.9886-14.072 1.6549-5.9675-0.47901-16.3-4.4712-16.3-6.298 0-0.55749-1.0772-1.4232-2.3937-1.9237-1.8463-0.70195-3.2328-0.48201-6.0627 0.96171-6.9202 3.5304-12.006 2.5061-19.496-3.9269-2.0462-1.7574-4.1336-2.6476-6.2082-2.6476-1.8087 0-4.2661-0.88721-5.8328-2.1059l-2.7074-2.1059 1.5035 2.3405c0.82693 1.2873 2.6218 2.8914 3.9885 3.5648 3.0385 1.497 3.2609 3.9008 0.37345 4.0368-7.0163 0.33043-11.027-0.62476-11.027-2.6262 0-1.1455 0.65303-1.3312 3.0182-0.85814 2.6907 0.53814 2.8312 0.46691 1.2947-0.65658-1.1163-0.81629-1.7663-2.5579-1.8451-4.9441-0.10407-3.1517 0.18387-3.7273 1.993-3.9842 1.1631-0.16517 3.226 0.57388 4.5843 1.6423 2.2154 1.7426 5.032 2.6016 5.032 1.5345 0-0.22449-0.37767-1.4015-0.83927-2.6156-0.54714-1.4391-0.42667-3.4076 0.34608-5.6554 0.65195-1.8964 0.98038-4.5202 0.72986-5.8307-0.38608-2.0197-0.10991-2.3828 1.8124-2.3828 1.2473 0 2.7151 0.44718 3.2616 0.99372 0.69931 0.69931 0.86328-0.36384 0.55344-3.5884-0.3277-3.4104 0.04859-5.5404 1.4716-8.3297 2.655-5.2043 4.5223-6.6334 6.8049-5.2079 0.98341 0.61415 2.8495 1.1166 4.1469 1.1166s2.3589 0.37307 2.3589 0.82903 0.89199 1.0623 1.9822 1.3474c1.7706 0.46302 1.9223 0.21864 1.4206-2.2895-0.36327-1.8164-0.03097-3.6177 0.94117-5.1013 1.4353-2.1906 1.4109-2.2935-0.54385-2.2935-3.0946 0-5.6771 1.7227-5.6771 3.7869 0 1.0142-0.63347 1.8439-1.4077 1.8439-0.97875 0-1.4077-0.98471-1.4077-3.2315 0-3.3304 2.5853-6.164 5.6051-6.1436 2.481 0.0168 9.6299 4.12 11.106 6.3744 1.3162 2.0104 1.2737 2.1978-0.60947 2.6903-1.4369 0.37576-2.0242 1.2577-2.0242 3.0398 0 3.6208-5.1603 5.9522-9.3113 4.2068-1.5889-0.66807-2.8889-0.85029-2.8889-0.40493 0 1.0386 5.4779 5.669 6.7066 5.669 2.2192 0 0.1569 4.3045-2.6978 5.6309-1.6664 0.77425-3.0389 1.9356-3.05 2.5808-0.01117 0.6452 0.29642 1.1079 0.68355 1.0282 1.6525-0.34029 7.7424 3.1054 7.7424 4.3807 0 0.76731-0.39215 1.3951-0.87144 1.3951-0.4793 0-1.5497 0.67822-2.3786 1.5072-1.907 1.907-0.57959 3.7518 3.3149 4.6072 2.1178 0.46516 2.7506 1.1267 2.7506 2.8758 0 2.0967 0.3571 2.2716 4.637 2.2716 2.5504 0 4.898-0.42232 5.217-0.93848s1.63-0.93848 2.9133-0.93848c2.1475 0 2.2854-0.25536 1.7319-3.2059l-0.60143-3.2059 5.4859-0.60572c3.0173-0.33315 6.1194-0.69902 6.8936-0.81304 1.028-0.15141 0.71167-0.86091-1.1731-2.6307-3.6907-3.4655-3.2536-4.9722 2.1116-7.2803 2.5808-1.1102 4.6924-2.4292 4.6924-2.931 0-1.1615-6.5879-1.1686-8.4215-9e-3 -1.8894 1.1948-2.9835-0.75893-1.7332-3.0951 0.53681-1.003 1.3225-3.0318 1.746-4.5084 0.99701-3.4764-0.84898-3.5928-5.1348-0.32389-2.73 2.0823-3.235 2.1921-4.2817 0.93091-0.75156-0.90558-1.0124-2.9755-0.7115-5.6454 0.55493-4.9233-0.56871-5.4111-4.9696-2.1574-2.1295 1.5744-3.0426 1.7995-3.8846 0.95745s-0.80783-1.6481 0.14556-3.4296c1.1205-2.0936 0.99783-2.6546-1.2143-5.5548-2.1615-2.8338-3.1371-3.3045-8.0254-3.8719-3.4656-0.40222-6.2838-0.26106-7.4708 0.37422-2.7118 1.4513-7.7908 1.2619-11.87-0.4426-1.9254-0.80448-3.7014-1.262-3.9467-1.0167s1.2784 2.1704 3.3861 4.2781c2.1077 2.108 3.8321 4.1746 3.8321 4.5927 0 0.41818-1.3229 2.1134-2.9398 3.7673-5.0059 5.1202-9.6904 5.0598-11.547-0.1487-1.0718-3.0074 0.10979-4.5262 1.7626-2.2658 1.7171 2.3483 5.1114 2.0848 6.0621-0.47072 0.56885-1.5291 0.30164-2.7289-0.96872-4.3497-1.9505-2.4885-2.2569-5.8615-0.78275-8.616 1.3332-2.4912 3.921-2.2752 6.3609 0.53094 2.2529 2.5911 6.3988 3.1101 9.8565 1.234 1.1274-0.61173 3.528-1.4078 5.3345-1.769l3.2847-0.65679-3.2847-0.11695c-5.151-0.18339-29.006-4.4273-34.724-6.1774-18.04-5.5221-33.209-13.182-41.429-20.921-2.7183-2.5591-3.8749-3.0788-5.6309-2.5304-2.8347 0.88533-3.7829 2.392-2.4875 3.9528 0.73992 0.89155 0.72508 1.8857-0.05368 3.5949-1.4424 3.1656-1.4237 3.2127 1.2697 3.2127 2.3618 0 2.4567-0.19739 2.7072-5.6309 0.13456-2.9178 1.8745-3.6005 2.2949-0.90053 0.17035 1.0941 1.1431 2.8226 2.1616 3.8411 1.4978 1.4978 1.7383 2.6089 1.258 5.812-0.49701 3.3143-0.26385 4.2588 1.4295 5.7913 2.0121 1.8209 2.0324 1.8192 3.6325-0.30203 1.5406-2.0424 4.8166-2.0983 4.8166-0.0822 0 0.45106 1.8476 0.56687 4.1059 0.25734 4.7771-0.65478 9.3242 0.63641 13.756 3.9062 1.732 1.2779 4.3091 2.3234 5.7269 2.3234 3.2947 0 4.2362 1.4849 1.7763 2.8014-2.2456 1.2018-2.5117 2.8295-0.4625 2.8295 0.7924 0 2.5008 0.69459 3.7965 1.5435 1.9617 1.2853 2.7224 1.3473 4.5475 0.3705 2.7901-1.4932 6.1694-0.46055 6.1694 1.8852 0 2.2405-3.4317 3.2116-8.4906 2.4026-4.7778-0.764-4.7595 0.59578 0.0443 3.2957 4.1517 2.3334 4.7482 4.5186 1.9461 7.1292-1.6038 1.4942-1.6878 2.1337-0.7446 5.6674 1.6374 6.1346 5.077 4.6407 3.8173-1.6579-0.42457-2.1229-0.21667-2.8052 0.8548-2.8052 2.107 0 8.2648 7.1948 7.6125 8.8946-0.72697 1.8945-2.811 1.8224-3.5575-0.12307-0.53952-1.406-0.71501-1.3883-1.8678 0.18821-0.95502 1.3061-1.0148 2.1524-0.23955 3.3937 0.81316 1.3021 0.52554 2.5922-1.3527 6.0676-1.9473 3.6031-2.8898 4.4429-5.1309 4.5718-3.1607 0.18185-7.1156-1.0657-8.0206-2.53-0.34152-0.5526-0.91156 0.31845-1.2668 1.9357-0.54388 2.4762-1.0785 2.9404-3.3867 2.9404-1.8107 0-2.7409 0.47775-2.7409 1.4077 0 1.0117 1.0341 1.4077 3.6756 1.4077 2.9144 0 4.0769-0.53448 5.6132-2.5808 1.622-2.1605 2.0871-2.3524 2.8561-1.1786 1.1431 1.745-0.62335 4.686-3.7999 6.3264-2.5943 1.3397-8.9319 1.5765-9.6827 0.36173-0.2805-0.45385-1.3853-1.0541-2.4552-1.3339-1.5564-0.40701-1.7339-0.25412-0.88826 0.76487 1.2727 1.5335 5.6986 2.67 10.694 2.7461 4.1911 0.0638 5.5574 1.9972 2.2774 3.2227-2.0897 0.78076-2.0179 0.89118 1.5637 2.4067 2.0647 0.87361 8.3625 2.4228 13.995 3.4426 5.6327 1.0198 10.535 2.036 10.895 2.2582 0.35948 0.22216 6.0976 1.0542 12.751 1.8489 6.6538 0.79473 14.094 1.9021 16.534 2.4609 9.9062 2.2688 76.746 3.1755 77.454 1.0507zm-1.7414-24.48c-8.0493-8.1119-9.2342-13.415-4.1363-18.513 2.8631-2.8631 4.2634-2.848 7.4229 0.0801 4.0277 3.7328 5.4971 8.3138 4.7892 14.931-0.71427 6.6758-1.2942 9.0407-2.1821 8.8988-0.35233-0.0563-3.0045-2.4846-5.8936-5.3962zm5.0564-4.58c0.51846-2.7121-0.65665-5.8755-2.1826-5.8755-0.49801 0-0.90547-1.2669-0.90547-2.8154 0-2.2043-0.41383-2.8154-1.9064-2.8154-1.0485 0-2.1364 0.59936-2.4175 1.3319-0.69121 1.8013 2.285 6.1792 3.8044 5.5961 0.66868-0.25658 1.4832 0.23029 1.81 1.082 0.40634 1.0589-4.7e-4 1.704-1.2866 2.0403-2.3172 0.60597-2.4077 1.7497-0.2385 3.0132 2.4387 1.4204 2.7845 1.2584 3.3227-1.5572zm-85.043 4.4071c-3.5671-2.8059-4.1225-7.3543-1.5475-12.674 1.1528-2.3813 2.6762-4.5523 3.3854-4.8244 4.1422-1.5895 8.4027 3.1664 9.4082 10.502 0.47744 3.4833 0.22777 4.2335-2.1393 6.4283-3.2152 2.9813-5.8307 3.1442-9.1068 0.56722zm6.6679-5.0365c1.9627-4.3077-2.1672-11.714-4.4955-8.0615-1.4319 2.2461-1.0722 3.7539 0.89543 3.7539 2.8107 0 3.4058 1.9895 1.1432 3.8217-2.4797 2.0079-2.5604 2.7476-0.29996 2.7476 0.94948 0 2.1901-1.0178 2.7568-2.2618zm140.6-8.9028c-1.3763-1.5208-2.1503-4.6523-3.5872-14.514-0.14002-0.96089 0.51786-2.2278 1.462-2.8154 1.4563-0.90638 2.1927-0.5233 4.8573 2.5267 3.3782 3.8668 4.7891 9.0333 3.7539 13.746-0.74015 3.3699-3.9229 3.8881-6.4859 1.056zm4.1353-4.3203c0-0.80914-0.84697-1.4077-1.9919-1.4077-1.6641 0-1.7996 0.23162-0.82357 1.4077 0.64257 0.77424 1.5389 1.4077 1.9919 1.4077s0.82357-0.63348 0.82357-1.4077zm-118.89 1.4506c-5.2001-3.1641-6.2993-7.5672-1.8815-7.5364 3.2808 0.0229 4.6881 1.361 3.9332 3.7396-0.4174 1.3151-0.23519 2.3801 0.48319 2.824 0.63432 0.39203 0.99624 1.1806 0.80428 1.7525-0.22511 0.67063-1.4105 0.39383-3.3392-0.77972zm4.3979-3.674c0-1.0999 0.56802-1.9998 1.2623-1.9998 0.69425 0 2.0266-0.84463 2.9609-1.877 2.0405-2.2548 3.5773-2.3782 5.2041-0.41807 1.693 2.0399-1.3737 4.9876-5.964 5.7325-3.0842 0.50051-3.4632 0.3432-3.4632-1.4377zm8.9155 40.232c-0.31901-0.51616-1.083-0.93201-1.6977-0.92411-0.67158 8e-3 -0.55583 0.37749 0.29001 0.92411 1.8029 1.1652 2.1278 1.1652 1.4077 0zm28.933-6.9609c0.28071-0.73152-0.11549-1.5702-0.88045-1.8638-0.76496-0.29355-2.0002-1.992-2.7449-3.7744-1.2555-3.0049-1.5914-3.2022-4.6166-2.7112-2.8558 0.46343-3.4026 0.22227-4.3851-1.9341-0.74596-1.6372-1.8589-2.4636-3.318-2.4636-1.2076 0-2.1958-0.31673-2.1961-0.70385-2.8e-4 -0.38713-1.7951-0.70386-3.9885-0.70386-3.4566 0-3.9503 0.25008-3.7052 1.877 0.15556 1.0323 1.3977 2.8764 2.7604 4.098 2.1043 1.8864 3.1432 2.1422 6.8951 1.6978 3.4885-0.41316 4.7337-0.17392 5.9205 1.1375 0.82662 0.91341 1.5029 2.1252 1.5029 2.6929 0 3.2721 7.631 5.583 8.7559 2.6516zm-86.228-1.8037c1.4463-1.0576 1.4966-1.342 0.31701-1.7947-2.3487-0.90126-5.3729-7.6088-4.2972-9.531 0.71613-1.2796 0.47851-1.9726-1.0414-3.0373-2.3339-1.6348-2.6986-6.9789-0.61812-9.0593 1.1759-1.1759 1.1059-1.8468-0.53918-5.1718-2.8819-5.8249-4.1626-6.498-5.9151-3.1089-1.9935 3.855-1.8416 7.7811 0.49343 12.749 2.7945 5.9451 1.3149 7.5853-4.2329 4.6922-2.1977-1.1461-2.8986-1.1915-3.5278-0.22883-1.3873 2.1225-0.44068 5.8521 1.578 6.2172 1.0323 0.18674 2.5881 0.96955 3.4572 1.7396 0.86912 0.77003 2.999 1.8878 4.733 2.4839 3.6547 1.2564 4.4671 2.8275 1.6871 3.2625-1.0604 0.16595-1.6857 0.69384-1.3895 1.1731 0.81289 1.3153 7.3399 1.0447 9.2956-0.3854zm-49.477-1.1872c-0.31185-0.31185-1.1213-0.34518-1.7987-0.074-0.74866 0.29958-0.52628 0.52196 0.567 0.56699 0.98931 0.0407 1.5436-0.18106 1.2318-0.49291zm216.1-5.1849c6.1134-3.2257 16.267-10.678 16.795-12.326 0.20445-0.63864-0.48221-0.40406-1.5259 0.52129s-3.5337 1.9451-5.5334 2.2661c-1.9996 0.321-5.1506 1.7964-7.0021 3.2788-1.8515 1.4823-4.8899 2.9424-6.752 3.2445-2.7013 0.43836-3.5858 1.1237-4.3761 3.3905-0.54473 1.5626-0.99041 3.0177-0.99041 3.2336 0 0.73872 4.2221-0.88491 9.3848-3.609zm-222.42 1.592c0-0.73946-0.84463-1.6126-1.877-1.9402-1.0435-0.3312-1.877-1.4199-1.877-2.452 0-1.6192-0.42674-1.7762-3.3424-1.2292-2.8468 0.53406-3.4156 0.34697-3.8363-1.2618-0.27167-1.0388-1.9069-2.6498-3.6339-3.5798-3.4065-1.8345-5.7425-5.2305-4.7276-6.8726 0.34942-0.56538 2.0311-1.028 3.737-1.028 2.9776 0 3.0974-0.14084 2.9947-3.5193-0.09631-3.1664 0.14975-3.5489 2.454-3.8143l2.5611-0.29505-1.8572-1.9935c-1.0754-1.1543-1.8572-3.3017-1.8572-5.1012 0-1.7092-0.34268-3.1077-0.76152-3.1077-0.41883 0-1.6231-0.8027-2.6762-1.7838-2.6989-2.5144-5.1958-1.0156-2.7713 1.6635 1.2686 1.4018 1.5332 2.6522 1.0546 4.9843-0.98036 4.7774-4.3599 11.877-5.9425 12.485-2.6303 1.0093-3.2559-1.0978-1.1655-3.9253 2.5365-3.4308 4.8151-10.869 3.822-12.476-0.99666-1.6126-3.1136 2.5359-4.6674 9.1466-0.92272 3.9258-1.6139 5.047-3.3854 5.4917-2.1029 0.5278-2.1522 0.70123-0.89141 3.1393 0.73398 1.4194 2.4903 3.338 3.9029 4.2636s4.0096 2.9943 5.771 4.5971 3.2667 2.7047 3.345 2.4486c0.07837-0.25607 1.4843 0.4899 3.1244 1.6577 2.9329 2.0884 10.421 5.7855 11.799 5.8259 0.38712 0.0113 0.70386-0.58441 0.70386-1.3239zm211.16-3.3479c1.6022-2.2501 1.7204-2.8154 0.58853-2.8154-0.77892 0-1.6772 0.42232-1.9962 0.93848s-1.586 0.93848-2.8154 0.93848c-1.2295 0-2.4964-0.42232-2.8154-0.93848-0.8425-1.3632-5.1616-1.1524-5.1616 0.25187 0 1.6873 4.6929 4.3859 7.6785 4.4156 1.7424 0.0173 3.1338-0.84145 4.5217-2.7905zm-209.11-6.2624c0.31024-2.6207 2.6431-4.2998 2.6431-1.9024 0 1.4151 3.4713 2.8193 4.8553 1.964 0.42659-0.26365 0.77561-1.6697 0.77561-3.1245 0-3.4718 2.3375-5.5019 4.6629-4.0496 1.5759 0.98419 1.6232 0.8242 0.67171-2.2759-0.88431-2.8813-0.78739-3.5071 0.71315-4.6043 0.9551-0.69839 2.0966-1.0472 2.5368-0.77523 1.2159 0.75146 0.95658-0.84844-0.47434-2.9267-0.70101-1.0181-1.5589-3.4037-1.9065-5.3013-0.56716-3.0965-0.41245-3.4844 1.5092-3.7839 1.8708-0.2916 1.6376-0.59896-1.8474-2.4344-4.2494-2.2381-5.0138-4.1357-2.3462-5.8243 1.2143-0.76863 1.3275-1.1711 0.43456-1.5441-0.66427-0.27749-2.4969-1.5893-4.0725-2.9151-2.346-1.974-3.0163-2.1702-3.7017-1.0833-0.55176 0.87492-0.3682 1.6786 0.53864 2.3585 1.6104 1.2073 0.87936 2.353-1.0332 1.6191-0.72378-0.27775-1.316-0.0375-1.316 0.5339 0 0.57139-0.81238 1.0389-1.8053 1.0389-1.54 0-1.7813-0.62551-1.6423-4.2573 0.22007-5.7494-3.1632-7.8928-7.4001-4.6881-1.7597 1.331-1.7419 1.3799 0.52449 1.4376 2.6311 0.0669 5.6309 1.9969 5.6309 3.6228 0 0.5883-0.50678 1.0696-1.1262 1.0696-0.87591 0-0.87591 0.25026 0 1.1262 2.0313 2.0313 1.1918 3.4966-3.3316 5.8157-4.5123 2.3134-4.5107 2.3387 0.23462 3.8212 2.0715 0.64714 1.719 1.8919-0.93848 3.3141-2.5104 1.3435-3.3212 4.0691-0.93848 3.1548 2.3187-0.88975 1.899 5.901-0.44208 7.1539-1.4375 0.76932-1.7258 1.6102-1.2933 3.7725 0.4149 2.0745 0.1692 2.9056-0.96564 3.2662-4.8208 1.5319-4.8659 1.6143-1.5221 2.7848 1.8066 0.63237 3.4212 1.8514 3.5881 2.709 0.33838 1.7388 1.6246 2.0567 2.512 0.62077 0.9797-1.5852 3.0387-1.0419 3.5566 0.93848 0.70557 2.6981 2.3674 2.3117 2.7158-0.63148zm-0.58831-7.0852c-1.782-2.5442-1.9039-5.422-0.2297-5.422 1.3213 0 5.3381 4.9147 5.3381 6.5314 0 1.7922-3.6279 1.0044-5.1084-1.1093zm3.8289-11.991c0.49242-5.2982 0.3575-6.5566-0.69731-6.5034-3.1297 0.15784-4.1249 1.4203-4.2045 5.3333-0.04467 2.1954-0.33331 4.2436-0.64142 4.5517-1.2591 1.2591-2.562-0.89632-2.562-4.2385 0-6.8315 7.37-11.253 10.739-6.4422 2.528 3.6092 1.1061 13.868-1.9221 13.868-1.0698 0-1.2058-1.255-0.71191-6.5693zm188.51 18.77c-0.31901-0.51616-1.3997-0.93847-2.4016-0.93847s-1.8216 0.42231-1.8216 0.93847c0 0.51617 1.0807 0.93848 2.4016 0.93848 1.3621 0 2.1505-0.40621 1.8216-0.93848zm-172.21-6.9382c0-1.2352-0.61196-2.4806-1.3599-2.7676-0.88559-0.33983-1.2129-0.0475-0.93848 0.83807 0.23179 0.74796 0.61935 1.9934 0.86123 2.7676 0.6668 2.1344 1.4372 1.6851 1.4372-0.83807zm-49.299-9.7198c0.35425-1.4194 1.2956-3.3039 2.092-4.1876 1.311-1.4549 1.2598-1.9677-0.54236-5.4252-2.3666-4.5403-2.5394-7.7674-0.50632-9.4547 1.148-0.95273 1.8792-0.98471 3.2298-0.14124 1.4763 0.92199 1.8458 0.76839 2.3931-0.99494 0.35599-1.1469 1.4365-3.2062 2.4011-4.5763 2.7899-3.9627 2.3281-6.1755-1.2962-6.2112-1.6775-0.0165-3.8107-0.0713-4.7403-0.12166-1.0254-0.0556-2.2619-1.476-3.1435-3.6109-1.7235-4.1737-4.0128-6.9574-5.1457-6.2572-1.4466 0.89407-0.8627 3.6631 1.0205 4.8392 4.1796 2.6102 4.6189 14.336 0.56623 15.117-1.4767 0.28437-1.6214-0.11605-1.0818-2.9924 0.68316-3.6416-0.10027-8.1255-1.4197-8.1255-0.46021 0-0.83674 2.6773-0.83674 5.9495 0 5.4354 0.20273 6.0418 2.3462 7.0185 1.8561 0.84567 2.3462 1.7594 2.3462 4.3738 0 2.4097-0.40846 3.3048-1.5081 3.3048-1.0232 0-1.3148-0.50392-0.90669-1.5673 0.33155-0.86401 0.060764-1.9104-0.60345-2.3318-2.0152-1.2787-2.6126-0.9035-2.6126 1.6408 0 1.6254 0.60902 2.5933 1.8333 2.9135 3.1761 0.83056 4.7809 4.3871 4.1282 9.1489-0.64726 4.7223 0.90159 6.0414 1.987 1.6923zm-6.3689-5.103c-0.29959-0.74865-0.52196-0.52628-0.567 0.567-0.04075 0.98931 0.18106 1.5436 0.49291 1.2318 0.31185-0.31185 0.34519-1.1213 0.07409-1.7988zm172.04-3.6102c1.2185-0.81529 1.1628-1.1288-0.41399-2.3318-1.8091-1.3803-4.2784-1.876-4.2784-0.85895 0 1.0539 1.9584 4.1611 2.6138 4.1471 0.36897-8e-3 1.3043-0.43825 2.0786-0.95632zm54.108-4.4995c-1.9926-2.2018-1.9736-5.2595 0.0539-8.6917 1.6227-2.747 4.6567-3.8143 9.6547-3.3962 1.5471 0.1294 2.3462-0.28322 2.3462-1.2115 0-2.0436-7.2013-1.6473-13.595 0.74816-3.442 1.2896-5.5142 1.6257-6.2512 1.0141-0.73191-0.60743-1.3364-0.53635-1.7986 0.21151-0.82514 1.3351 2.0081 3.6571 4.4624 3.6571 2.3094 0 2.1341 1.6585-0.41399 3.9166-1.7403 1.5423-1.8062 1.7738-0.37497 1.3168 1.1708-0.37386 2.3396 0.21203 3.5874 1.7984 1.0179 1.2941 2.3079 2.3529 2.8666 2.3529s0.31689-0.77231-0.53735-1.7162zm-214.96-2.722c-0.95398-0.95397-1.7411 0.48228-0.95839 1.7488 0.59127 0.9567 0.81232 0.95744 1.1302 4e-3 0.21735-0.65205 0.14003-1.4407-0.17182-1.7525zm8.1372-6.7963c-0.75728-0.92994-2.1036 2.4446-2.0484 5.1344 0.05475 2.669 0.11888 2.6202 1.2331-0.93848 0.64642-2.0646 1.0133-3.9528 0.81533-4.196zm213.41 5.0807c4.7278-3.2084 4.6589-3.0477 1.7772-4.1433-3.5907-1.3652-6.1688 0.20659-6.1688 3.7608 0 1.5303 0.1924 2.7824 0.42756 2.7824s2.019-1.08 3.9641-2.3999zm-205.39 0.25689c1.147-1.3821 0.39478-2.8996-1.8463-3.7243-1.1117-0.40913-1.6668 0.065-1.9772 1.6887-0.63835 3.3393 1.7058 4.5873 3.8235 2.0356zm140-9.1715c3.3551-0.48713 11.379-1.323 17.831-1.8574 20.206-1.6738 27.451-2.8997 50.678-8.5763 8.4418-2.0632 14.625-4.3067 22.054-8.0019 5.6778-2.8242 10.99-5.7321 11.805-6.4619s1.9553-1.327 2.5342-1.327 1.3903-0.52789 1.8031-1.1731c0.99416-1.554 6.5131-5.3962 7.7511-5.3962 0.53706 0 0.97648 0.43926 0.97648 0.97614 0 1.1838-7.596 8.3668-8.9155 8.4307-0.51616 0.025-2.1456 1.0328-3.621 2.2396-3.4321 2.8073-1.5345 4.4115 2.0679 1.7481 6.2142-4.5943 10.936-5.9827 13.074-3.8445 1.7088 1.7089-0.43426 3.5885-4.0915 3.5885-2.8842 0-6.9602 2.8191-6.9602 4.814 0 1.9959 2.3554 1.6894 4.46-0.58025 2.0636-2.2255 2.9214-2.5093 6.3993-2.1173 3.9927 0.45004 4.011 0.43828 3.1285-2.0049-0.48828-1.3517-1.3108-3.3023-1.8278-4.3346-0.51701-1.0323-1.5062-4.622-2.1981-7.9771-1.5074-7.3088-2.8329-7.6306-8.8604-2.1514-6.4517 5.8648-23.052 13.8-36.804 17.593-4.8815 1.3463-11.198 3.0882-14.037 3.871-21.66 5.9723-68.721 8.7714-116.34 6.9195-23.358-0.90835-39.883-3.2488-61.032-8.6445-12.537-3.1986-33.005-15.518-35.848-21.576-0.66604-1.4194-1.5302-2.5808-1.9204-2.5808-1.1098 0-0.83992 1.273 0.75155 3.5451 0.80351 1.1472 1.1295 2.0858 0.72431 2.0858-1.1085 0 8.0771 8.3045 12.314 11.133 7.2145 4.8162 16.328 9.2916 21.294 10.457 2.7666 0.64945 5.7733 1.5644 6.6817 2.0333 1.4598 0.75343 11.361 3.1377 22.907 5.5162 4.0335 0.83089 14.962 2.1557 34.566 4.1903 12.356 1.2824 48.397 0.95275 58.655-0.53653zm-133.73-3.2193c4.4384 0.5117 4.5908 0.45853 2.8154-0.98233-1.4296-1.1603-2.8834-1.3701-6.1001-0.88037-2.3227 0.35362-5.1578 0.60385-6.3001 0.55608-1.411-0.059-1.9159 0.33296-1.5745 1.2225 0.38722 1.0091 1.1864 1.1068 3.4847 0.42627 1.6402-0.48572 5.0938-0.63968 7.6746-0.34215zm253.86-4.879c0-1.9019-3.5937-5.926-5.2922-5.926-0.66611 0-1.7045 0.92191-2.3075 2.0487-0.9335 1.7443-0.78351 2.3021 1.0094 3.7539 2.712 2.196 6.5903 2.2686 6.5903 0.12336zm-275.64-2.1721c-0.26996-1.0323-0.8639-1.877-1.3199-1.877-0.98115 0-1.0154 0.29938-0.25938 2.2694 0.82688 2.1548 2.1588 1.8238 1.5792-0.39248zm127.83 0.38295c-1.7818-0.93822-4.1269-1.3108-6.3877-1.0149-2.9406 0.38487-3.5202 0.19737-3.278-1.0603 0.16183-0.84033 1.449-2.1759 2.8603-2.9679 2.0978-1.1772 2.8672-1.2234 4.2165-0.25332 0.90775 0.65266 2.8207 1.6473 4.2511 2.2103s3.0425 1.8493 3.5826 2.8585c1.6035 2.9962 4.14 1.7416 4.14-2.0478 0-2.4371 0.35828-3.1793 1.4077-2.9162 0.77424 0.1941 2.2523 0.47903 3.2847 0.63318 1.0323 0.15415 4.4108 1.1463 7.5078 2.2048s7.0551 1.9349 8.7958 1.9476c2.685 0.0196 2.9906-0.18695 2.0155-1.362-0.63222-0.76178-3.429-2.5393-6.215-3.95s-5.0655-2.9911-5.0655-3.5121c0-1.0829 4.5808-5.2301 5.7768-5.2301 0.43587 0 0.7925-0.42232 0.7925-0.93848 0-0.54865-3.216-0.94445-7.7424-0.95285-9.9852-0.0186-10.994-0.6422-7.5886-4.6897l2.6188-3.1122-5.4387 0.6392c-4.3816 0.51497-6.2672 0.27272-9.7015-1.2464-3.7906-1.6768-4.1974-2.1463-3.6722-4.2388 0.42504-1.6935 0.21288-2.3532-0.75677-2.3532-0.74107 0-1.5229-0.52649-1.7374-1.17-0.60533-1.816-5.9304 2.5255-15.079 12.293-2.4858 2.6543-5.5476 5.0839-6.804 5.3992-2.694 0.67616-2.7639 1.1292-0.57751 3.7444 1.0993 1.3149 3.1785 2.1397 6.273 2.4885 3.6282 0.40895 5.1932 1.1534 7.24 3.4442 1.4362 1.6074 2.6113 3.5213 2.6113 4.2531 0 1.4766 2.6157 2.046 10.323 2.2473l5.1616 0.13483-2.8154-1.4824zm-10.792-8.7763-4.2232-0.52216-0.0771-4.2232c-0.14091-7.7158 4.677-8.5208 16.938-2.8302 7.0965 3.2936 10.111 5.7333 8.757 7.0872-0.68674 0.68673-16.813 1.0548-21.395 0.4883zm12.412-3.8103c-3.7991-2.3163-3.9658-2.3161-3.9658 4e-3 0 1.5439 0.62448 1.8763 3.5193 1.8734l3.5193-4e-3 -3.0727-1.8734zm-7.7198-0.35082c0-0.71104-0.58872-1.7814-1.3083-2.3786-1.0104-0.83856-1.6534-0.74065-2.8241 0.42998-0.83367 0.83368-1.2758 1.904-0.98251 2.3786 0.84941 1.3744 5.1149 1.0158 5.1149-0.42999zm26.277 12.653c-2.3107-1.2858-6.5693-2.0707-6.5693-1.2109 0 1.5029 1.2509 2.0512 4.6142 2.0227 2.3069-0.0196 2.9208-0.2745 1.9552-0.81183zm-38.597-1.7404c-2.8337-3.6132-6.4496-4.2709-6.4496-1.1731 0 1.0323-0.23892 1.877-0.53093 1.877-1.8252 0-4.429-2.4761-6.149-5.8476-2.6523-5.1989-2.1188-13.757 1.1573-18.567 4.4833-6.5822 8.1319-9.1729 15.838-11.246l4.2155-1.1342-4.0901-1.3826c-3.9146-1.3233-4.2236-1.2876-7.2023 0.83173-4.2867 3.05-10.154 9.8801-12.779 14.877-2.4093 4.5852-2.7375 11.18-0.79046 15.881 0.61184 1.4771 0.96945 3.3928 0.79471 4.2571-0.28591 1.4141-0.55644 1.3833-2.7009-0.30764-2.1988-1.7338-3.023-1.8088-10.656-0.97004-4.5502 0.5-8.5002 0.68204-8.7777 0.40455-0.27749-0.2775 0.08354-1.2273 0.8023-2.1106 1.1686-1.4362 1.1082-1.529-0.57012-0.87737-1.6134 0.62644-11.273 2.3062-14.077 2.4478-0.51616 0.0261-0.305 0.41724 0.46924 0.86924 0.77424 0.45201 8.7982 1.3309 17.831 1.953 9.0329 0.62217 16.599 1.2953 16.814 1.4958 0.21506 0.20055 4.3843 0.36463 9.2651 0.36463 8.3165 0 8.7931-0.10319 7.586-1.6423zm59.244 0.68124c0-0.52861 1.4284-3.0376 3.1742-5.5755 7.1917-10.455 10.062-20.248 9.5604-32.62-0.32056-7.9099-1.678-12.766-4.4182-15.805-0.96083-1.0656-1.747-2.3923-1.747-2.9483s-1.1384-1.2966-2.5298-1.6458c-1.3914-0.34921-3.9399-1.8731-5.6635-3.3864s-4.1232-2.7515-5.3324-2.7515-2.6654-0.56241-3.2359-1.2498c-1.7536-2.1129-20.165-7.1965-26.063-7.1965-4.6065 0-11.736-2.5408-17.13-6.1047-2.7796-1.8366-5.2191-3.174-5.421-2.9721-0.6266 0.6266 7.1206 7.1998 8.4857 7.1998 0.70955 0 1.8158 0.63348 2.4584 1.4077 0.98682 1.189 0.79459 1.4077-1.2374 1.4077-1.3231 0-2.6378-0.37554-2.9215-0.83452s-1.6811-1.1199-3.1054-1.4687c-2.9807-0.72994-11.268-8.3938-12.52-11.577-0.68514-1.7432-1.1763-1.9719-2.5988-1.2106-2.3578 1.2619-3.8824 9.1662-2.8421 14.735 0.84313 4.513 6.1586 15.372 7.5246 15.372 0.44424 0 1.6289 0.82115 2.6325 1.8248 1.9174 1.9174 8.3662 5.1639 16.812 8.4636 10.426 4.0734 21.69 10.279 32.001 17.629 2.0251 1.4436 5.8229 5.1725 9.7993 9.6213 0.69205 0.77425 1.9714 2.8072 2.843 4.5176s2.0879 2.9451 2.7028 2.7436c4.1545-1.3611 6.346-28.838 2.7801-34.856-1.3515-2.281-5.7607-7.1288-6.4838-7.1288-0.39588 0-2.0068-1.1839-3.5799-2.6308-3.1762-2.9216-10.49-6.0019-18.345-7.7258-4.7081-1.0334-11.912-2.8917-17.772-4.5847-3.0165-0.87141-3.6456-2.8897-0.90067-2.8897 4.8009 0 31.425 7.0612 32.366 8.5841 0.27215 0.44035 1.1699 0.80063 1.9951 0.80063 2.5543 0 11.32 7.4582 13.86 11.793 3.7222 6.3514 4.6497 12.749 3.3932 23.403-0.98934 8.3886-2.9286 14.544-4.5824 14.544-0.3769 0-1.2461 1.2669-1.9315 2.8154-0.68542 1.5485-1.7706 2.8154-2.4115 2.8154s-3.1051-3.0618-5.476-6.804-5.5064-7.8491-6.9678-9.1265c-8.1482-7.1224-18.433-14.101-20.781-14.101-0.47032 0-3.9283-1.6893-7.6844-3.7539s-7.1806-3.7539-7.61-3.7539-3.0889-1.0558-5.91-2.3462-5.4785-2.3462-5.9052-2.3462-3.4391-2.598-6.694-5.7732c-5.8579-5.7144-7.3309-8.3284-9.5715-16.985-0.85869-3.3175-1.6027-4.4578-2.9088-4.4578-2.26 0-2.2252 0.38855 0.67836 7.5806 4.5369 11.238 7.9821 15.584 15.972 20.148 2.5228 1.4411 5.2204 3.0983 5.9946 3.6826 1.2093 0.91267 11.033 5.5316 22.523 10.59 1.8066 0.79528 4.3405 2.0402 5.6309 2.7664 1.2904 0.72624 3.6178 1.8944 5.172 2.5959 1.5542 0.70148 5.7023 3.9112 9.2181 7.1328 7.2066 6.6036 11.024 13.244 11.159 19.409 0.0703 3.217 0.42146 3.9885 1.8154 3.9885 0.95058 0 1.7283-0.4325 1.7283-0.9611zm23.697-1.3403c1.4194-0.0246 2.5808-0.36151 2.5808-0.74863s-1.2669-0.70386-2.8154-0.70386c-2.774 0-3.7254-1.2038-1.8616-2.3556 0.52458-0.32421 0.6773-1.0368 0.33937-1.5836-0.38513-0.62317-0.94821-0.39768-1.5089 0.60426-0.81778 1.4613-8.1474 5.212-10.185 5.212-1.7492 0-0.79069-1.8606 1.2509-2.4283 1.1614-0.32294 3.2691-1.9682 4.6838-3.6562l2.5722-3.069-1.8709-2.3785c-1.1868-1.5088-1.6342-3.0095-1.2234-4.1042 0.57285-1.5268 0.46289-1.5755-0.95409-0.42263-1.1947 0.97201-1.4512 2.1045-1.0097 4.4578 0.36467 1.9439 0.21581 3.1547-0.38786 3.1547-0.53882 0-1.2171 0.74814-1.5073 1.6625-0.29022 0.91439-1.8146 3.0715-3.3874 4.7936l-2.8597 3.131 7.7819-0.76025c4.2801-0.41815 8.9433-0.78041 10.363-0.80504zm68.743-0.51401c0.31901-0.51617 0.0272-0.94424-0.64847-0.95129-0.67566-8e-3 -2.185-0.26911-3.354-0.58234-1.6908-0.45305-2.0062-0.25848-1.5419 0.95128 0.6391 1.6655 4.6168 2.0833 5.5444 0.58235zm-51.147-2.8916c1.1769-0.67314 1.1868-0.80987 0.0604-0.83372-0.74097-0.0157-2.323-0.94522-3.5156-2.0656-2.3552-2.2126-4.1277-1.7226-2.1946 0.60667 1.0002 1.2051 0.87344 1.4304-0.80475 1.4304-2.7469 0-8.9126-6.4147-11.425-11.887-1.4454-3.1477-2.2216-7.0225-2.5354-12.657-0.40074-7.1952-0.18966-8.6944 1.852-13.154 1.2674-2.7683 3.0365-5.7654 3.9314-6.6603 1.5439-1.5438 1.5109-1.6271-0.64354-1.6271-1.789 0-2.6179 0.84609-3.9074 3.9885-0.90019 2.1937-2.2653 5.3008-3.0336 6.9047-2.0775 4.3368-1.2154 16.183 1.7214 23.655 1.2808 3.2588 3.9805 7.8248 5.9993 10.147 3.6558 4.2047 3.6894 4.219 8.3792 3.5895 2.5898-0.34761 5.3422-0.99436 6.1164-1.4372zm-159.45-2.9056c0.53245-0.9949 0.775-2.5258 0.539-3.4021-0.35243-1.3085-0.55028-1.2158-1.1073 0.51843-1.039 3.235-2.7783 2.5184-3.8768-1.5971-1.0339-3.8735-0.31572-5.6761 2.2615-5.6761 0.93546 0 0.75716-0.73978-0.65693-2.7257-2.3905-3.3572-2.4115-4.0367-0.16791-5.4379 1.1324-0.70721 1.9042-2.484 2.1364-4.9181 0.19989-2.096 0.12037-3.8109-0.1767-3.8109s-1.1024-1.5549-1.7896-3.4553c-1.1675-3.2286-1.3338-3.3399-2.5347-1.6976-1.8164 2.4841-1.5952 4.3091 0.59168 4.881 1.0323 0.26996 1.877 1.1202 1.877 1.8895 0 0.95999-0.5151 1.1899-1.6423 0.73304-0.90328-0.36611-2.8037-1.0861-4.2231-1.5999-2.8895-1.046-3.1675-2.2422-1.1433-4.9186 2.3828-3.1504 1.5384-3.2463-3.9349-0.44718-3.9961 2.0437-5.6213 2.461-6.5578 1.6838-1.7154-1.4237-7.6465 4.5575-8.4366 8.5079-0.32308 1.6154-1.3464 3.4687-2.2741 4.1185s-1.9787 2.345-2.3357 3.7672c-0.42916 1.7099-1.1669 2.4826-2.1778 2.2811-3.6859-0.73463 1.7631-11.271 9.8403-19.028 3.5128-3.3735 6.6245-5.3097 11.07-6.8885 3.4013-1.2079 6.1841-2.5936 6.1841-3.0795 0-4.0468-11.032 1.132-18.734 8.795-6.706 6.6712-9.765 11.075-11.131 16.023-0.88141 3.1922-0.76189 3.5662 1.6996 5.319 4.0176 2.8608 5.6426 2.4738 5.6426-1.3439 0-3.2964 1.5394-5.392 2.325-3.1649 2.2198 6.2932 2.3466 6.4713 4.0009 5.6203 1.8439-0.94856 3.9974-0.47699 3.9974 0.87532 0 0.48593-1.0558 1.2849-2.3462 1.7755-3.3705 1.2814-2.8893 2.8154 0.88309 2.8154 1.7761 0 3.5117 0.45695 3.8569 1.0154 0.39527 0.63956 1.6575 0.0316 3.4099-1.6423l2.7824-2.6578 2.7456 3.0649c1.5101 1.6857 2.7456 3.5298 2.7456 4.098 0 0.97161-0.60486 0.8928-5.8655-0.76432-0.90328-0.28454-1.6423-0.0649-1.6423 0.48807 0 0.87431 1.4156 1.2723 8.4463 2.3746 2.5028 0.39243 4.7289-0.53735 5.7199-2.3891zm-13.129-9.7175c-2.2686-1.1539-4.491-2.7525-4.9386-3.5523-1.2296-2.1972 0.8216-2.9072 3.4408-1.191 2.8159 1.8451 3.2764 1.8564 3.2764 0.0809 0-0.77425 0.31674-1.405 0.70386-1.4018 0.76309 7e-3 3.9885 5.2944 3.9885 6.5391 0 1.6976-2.5711 1.5089-6.471-0.4748zm-8.7793-7.7199c-2.2899-0.5087-2.1428-5.3576 0.23462-7.735 2.1866-2.1866 6.5693-2.5419 6.5693-0.53249 0 0.73947-0.84463 1.6126-1.877 1.9402-1.0719 0.34021-1.877 1.42-1.877 2.5174 0 1.8267 0.11425 1.8468 2.3132 0.406 2.9209-1.9139 3.9047-1.9083 4.6471 0.0264 0.76113 1.9835 0.43451 2.2556-3.3525 2.7934-1.7262 0.24515-3.5609 0.55896-4.077 0.69736-0.51616 0.1384-1.6775 0.0875-2.5808-0.11321zm131.25 17.996c-0.31331-0.81645-0.56965-1.8722-0.56965-2.3462 0-1.2334-2.5785-1.0659-3.3727 0.21912-0.36739 0.59447 0.11071 1.6503 1.0625 2.3462 2.3178 1.6948 3.5775 1.599 2.8798-0.21913zm56.009-0.65331c-0.26088-1.3647 0.30156-2.7805 1.5553-3.9152 1.6439-1.4877 2.5348-1.6305 5.4658-0.87603 1.926 0.49574 3.3962 1.4129 3.2672 2.0382-0.12904 0.62528 0.22289 1.1369 0.78207 1.1369s0.82739-0.5279 0.59605-1.1731c-0.60662-1.6918 1.0336-4.4578 2.6434-4.4578 0.75608 0 1.3747 0.84463 1.3747 1.877 0 2.3615 1.0356 2.3622 4.9043 4e-3 1.69-1.0304 3.9526-1.875 5.0279-1.877s2.231-0.27938 2.5682-0.61656c0.91932-0.91933-4.9396-4.9266-8.9676-6.1334-4.1745-1.2507-4.4132-2.1007-1.0564-3.7602 1.3621-0.67337 2.3306-1.6466 2.1522-2.1628-0.42585-1.232-6.2953-3.2526-9.5003-3.2705-3.5407-0.0198-4.0192-1.4194-1.7441-5.1008l1.9625-3.1754-2.6004 0.22988c-1.4302 0.12643-5.0757 0.56182-8.101 0.96751-6.9076 0.92634-8.1635-0.36967-4.7258-4.8768 2.3018-3.0178 2.3084-3.0742 0.35839-3.0742-1.0925 0-2.7629 0.41557-3.7119 0.92347-2.5347 1.3565-7.131 9.3123-7.8096 13.518-0.32383 2.0068-1.4505 4.4516-2.5037 5.4328-2.2376 2.0846-2.5098 5.0358-0.53439 5.7938 0.7593 0.29138 1.9578-0.0474 2.6632-0.7529 1.753-1.753 3.8271-0.32136 3.0557 2.1091-0.47356 1.4921 0.44448 2.9051 4.1227 6.3457 2.6026 2.4344 4.7319 5.0019 4.7319 5.7055 0 0.71889 0.97075 1.2793 2.2161 1.2793 1.8001 0 2.1394-0.40124 1.8074-2.1378zm-5.4281-9.7866c-3.49-0.55248-4.1936-1.6192-4.2118-6.3855-0.0209-5.4756 5.8702-11.353 7.9715-7.9532 0.32384 0.52398 1.9324 1.5259 3.5747 2.2266s4.0417 2.1774 5.3321 3.2817 3.6131 3.051 5.1616 4.3259c2.3636 1.946 2.5895 2.469 1.4077 3.259-0.77424 0.51755-3.5721 0.94747-6.2174 0.95537-2.6453 8e-3 -6.0238 0.1766-7.5078 0.37488-1.484 0.19829-3.9637 0.16018-5.5105-0.0847zm11.024-3.0785c2.5278-0.0197 1.9417-1.1805-2.0052-3.9713-3.9645-2.8033-4.7988-2.6046-4.7988 1.1431 0 3.1381 0.8406 4.0022 3.2608 3.3518 1.0454-0.28092 2.6399-0.51654 3.5432-0.52358zm-9.6194-4.6758c0-2.0909-0.35123-2.6512-1.4077-2.2458-0.77424 0.29711-1.4077 1.5508-1.4077 2.786 0 1.3706 0.54858 2.2458 1.4077 2.2458 0.93518 0 1.4077-0.9352 1.4077-2.786zm-145.17 16.363c4.0029-1.3074 8.144-3.1726 9.2023-4.1449 6.2814-5.7708 7.7298-7.5009 10.594-12.654 1.8207-3.276 3.4746-7.8858 3.8948-10.856 0.4017-2.8389 0.84776-6.0063 0.99123-7.0386 0.32976-2.3726-8.0248-19.127-10.095-20.244-1.1387-0.61448-0.82764 0.56844 1.1835 4.501 5.3527 10.466 5.1275 22.422-0.62301 33.073-3.6248 6.7141-8.0036 10.82-15.206 14.259-7.1373 3.4082-9.2624 3.2532-8.8632-0.64607 1.2368-12.082 1.2094-14.153-0.25708-19.379-1.6658-5.9369-5.5931-14.408-7.1162-15.349-1.3325-0.82353-4.9165-8.1593-8.4015-17.196-2.5546-6.6242-2.9592-8.7514-2.6346-13.849 0.21094-3.3127 0.04749-5.4226-0.36322-4.6887-1.362 2.4337-1.026 13.151 0.60481 19.293 1.3819 5.2043 4.6259 12.338 7.0636 15.533 0.39383 0.51616 2.0843 3.4256 3.7567 6.4654 3.9313 7.1458 5.765 17.236 5.0073 27.554-0.56726 7.7256-0.56355 7.7424 1.7076 7.7424 1.2518 0 5.5512-1.0697 9.5541-2.3771zm18.113 1.6589c0.57356-0.37922 1.3497-2.8011 1.7248-5.3819l0.68198-4.6924-2.9002 2.7586c-1.9648 1.8689-2.546 2.9775-1.802 3.4374 0.71064 0.4392-0.0338 1.3688-2.1093 2.6341l-3.2075 1.9554 3.2847-0.0109c1.8066-6e-3 3.754-0.32113 4.3275-0.70035zm139.26-1.2437c1.0494-0.59368 0.77998-0.80368-1.0582-0.82495-1.3562-0.0157-3.0422 0.66585-3.7465 1.5146-1.1465 1.3814-1.0356 1.4678 1.0582 0.82495 1.2864-0.39497 2.9723-1.0765 3.7466-1.5146zm-22.289-3.8514c-1.1327-1.1327-2.3024-1.8164-2.5994-1.5194-0.70192 0.70193 2.175 3.5789 3.5789 3.5789 0.594 0 0.15324-0.92675-0.97944-2.0594zm-132.87-5.1431c10.379-7.9024 13.705-14.261 13.535-25.88-0.096-6.5684-0.49748-8.1637-3.5595-14.142-1.8983-3.706-4.3799-8.0051-5.5147-9.5536-5.243-7.1541-10.587-21.653-11.137-30.216-0.20671-3.2186-0.65815-6.3088-1.0032-6.8671-1.1995-1.9408 0.39633-3.975 2.7635-3.5224 1.636 0.31274 2.3882-0.0475 2.7159-1.3005 0.68599-2.6232-1.5106-2.1421-7.3893 1.6184-3.9097 2.501-4.9933 3.6479-4.2701 4.5193 0.71003 0.85553-0.50518 2.9767-4.5448 7.933-6.5707 8.0617-8.1193 12.959-7.1093 22.484 0.7727 7.2874 1.585 9.2553 8.0189 19.428 8.3856 13.258 11.231 20.739 11.231 29.526 0 3.5722-0.42232 6.756-0.93848 7.075-1.5631 0.96604-1.0533 2.3462 0.86659 2.3462 0.99279 0 3.8434-1.5519 6.3347-3.4487zm39.957-9.8588c1.9356-1.9305 3.5193-3.738 3.5193-4.0168 0-1.1809-1.7907-0.32221-4.943 2.3704-3.8595 3.2967-5.7767 5.9716-6.682 9.3229-0.5631 2.0846-0.34275 1.9831 1.9763-0.91026 1.4355-1.791 4.1937-4.8359 6.1294-6.7664zm141.07 8.18c4.1312-1.7261 6.4331-3.9017 5.0396-4.763-0.62962-0.38912-0.77938-2.0958-0.39642-4.5176l0.61547-3.8922-3.1018 5.8655c-1.706 3.226-3.3541 5.8655-3.6625 5.8655s-1.261-2.2172-2.1168-4.927c-3.289-10.414-14.659-21.582-25.533-25.08-2.0646-0.66407-4.1895-1.5498-4.7219-1.9683-0.9552-0.7508-4.2448-1.5264-26.105-6.1551-11.97-2.5347-14.877-2.5452-6.9502-0.0252 2.7115 0.86203 8.2118 2.6203 12.223 3.9074s7.9255 2.34 8.6985 2.34c2.5671 0 14.539 4.5718 19.691 7.5197 8.8276 5.0507 18.221 15.231 20.829 22.572 0.9048 2.5475 1.7707 4.6319 1.9242 4.6319s1.7584-0.61811 3.5665-1.3736zm-99.072-0.97262c-1.4713-1.7728-2.9016-1.781-5.2169-0.0298-1.6923 1.28-1.5302 1.38 2.2817 1.4077 3.5427 0.0257 3.9438-0.16252 2.9352-1.3779zm-141.95-6.2139 1.1057-2.9292-3.9147 0.626c-2.1531 0.34429-4.0784 0.78971-4.2786 0.98981-0.97529 0.97529 2.8117 3.864 5.4839 4.1831 0.27396 0.0328 0.99565-1.2587 1.6038-2.8697zm252.62-0.43888c1.5881-1.3363 2.8734-2.92 2.8562-3.5193-0.0172-0.59932-0.82392-0.13947-1.7928 1.0219-1.9374 2.3224-3.77 2.7664-3.8728 0.93847-0.0625-1.1116-1.6052 1.7922-1.745 3.2847-0.12821 1.368 1.7017 0.67462 4.5544-1.7258zm-122.4-0.35615c1.5372-0.0338 1.3904-0.29499-0.81114-1.4432-3.0757-1.6041-6.9875-1.7984-9.0429-0.44909-2.2137 1.4532 0.68368 2.9219 4.6924 2.3786 1.8066-0.24483 4.1293-0.4637 5.1616-0.48637zm58.664-6.5098c9e-3 -2.6238 4.4947-11.124 6.9411-13.154 2.106-1.7478 1.8594-2.8941-0.61518-2.8594-5.8945 0.0828-10.987 10.073-10.225 20.058 0.13187 1.7281 0.19905 1.7311 2.0134 0.0892 1.0323-0.93425 1.8809-2.7945 1.8858-4.134zm54.184-0.81353c0.93359-2.0326 1.2085-4.3326 0.81336-6.804-0.50639-3.1668-0.34605-3.7324 1.0564-3.7267 1.428 6e-3 10.468 9.7621 11.351 12.25 0.61127 1.7226 2.0334 0.84774 2.0334-1.2508 0-1.1728-1.26-3.661-2.8-5.5293s-3.2188-4.4984-3.7307-5.8447c-0.51184-1.3463-1.5597-2.4478-2.3286-2.4478-0.76885 0-1.8687-0.87966-2.4441-1.9548-0.96673-1.8064-1.1726-1.8404-2.7105-0.44862-1.2201 1.1042-1.8213 3.5673-2.2523 9.228-0.32338 4.247-0.81245 8.7776-1.0868 10.068s-0.23172 1.7127 0.0948 0.93848c0.32652-0.77425 1.2283-2.7895 2.004-4.4783zm-125.05 2.6013c0.31901-0.51616 0.13277-0.93847-0.41385-0.93847-0.54663 0-0.99387 0.42231-0.99387 0.93847 0 0.51617 0.18623 0.93848 0.41385 0.93848s0.67486-0.42231 0.99387-0.93848zm-117.3-1.6817c6.5053-3.687 9.6893-6.4171 13.837-11.864 5.345-7.019 10.313-17.636 9.8458-21.04l-0.34122-2.4844-1.1535 2.8154c-7.4781 18.253-16.9 28.559-30.178 33.009l-3.2847 1.101 4.2231 0.0327c2.3227 0.018 5.4959-0.68856 7.0514-1.5702zm92.334-3.2829c5.9523-5.591 6.4311-7.233 1.5705-5.385-3.6645 1.3932-5.5152 0.27507-4.8716-2.9433 0.45144-2.2572-0.0933-3.3499-3.3249-6.6689-3.2975-3.3867-3.7593-3.625-3.1461-1.6232 0.39526 1.2904 1.2986 3.4866 2.0075 4.8804 0.75887 1.4922 1.2888 5.4797 1.2888 9.6976 0 3.9399 0.38024 7.0226 0.84498 6.8506 0.46474-0.17205 2.9986-2.3357 5.6309-4.8082zm129.6 2.6738c0-0.99055-1.801-1.4067-2.3367-0.53994-0.32421 0.52459 0.0689 0.95379 0.87362 0.95379 0.80471 0 1.4631-0.18623 1.4631-0.41385zm16.423-11.694c0-6.304-0.41123-10.626-1.0891-11.445-0.59902-0.72426-1.3851-2.9005-1.7468-4.8361-0.36172-1.9356-1.0495-3.5193-1.5283-3.5193-0.47887 0-2.621-1.7329-4.7603-3.8509-4.298-4.2553-9.3344-7.6613-12.93-8.7442-1.2904-0.38865-9.9479-1.066-19.239-1.5053-9.2909-0.43926-17.737-0.95873-18.77-1.1544-6.1607-1.1675-16.328-5.8169-22.844-10.446-3.9559-2.8106-4.1128-2.8422-5.3962-1.0869-3.1239 4.2722-0.3029 11.491 7.6384 19.546 4.7745 4.8429 13.73 9.4676 20.132 10.397 20.884 3.0302 43.777 10.97 48.686 16.885 0.69611 0.83877 1.7054 1.2533 2.2428 0.92112 0.58228-0.35987 0.69453-0.14664 0.27778 0.52769-0.40771 0.65966 0.21676 2.0433 1.4973 3.3176 1.2082 1.2023 2.9833 3.3292 3.9447 4.7263 2.8796 4.1847 3.8828 1.6704 3.8828-9.7314zm-239.3 5.1709c2.5739-1.7505 5.6598-4.39 6.8575-5.8655 5.9132-7.2847 12.381-17.551 13.333-21.165 0.58583-2.2225 1.6667-4.98 2.402-6.1279 1.1727-1.8308 4.1412-11.576 4.1412-13.595 0-1.6764-1.9851-0.57894-2.7921 1.5436-0.47778 1.2567-3.0235 4.6642-5.6571 7.5724-6.2871 6.9425-12.43 15.343-17.154 23.459-2.1031 3.6131-4.61 7.459-5.5709 8.5463-0.96086 1.0874-1.9967 3.5157-2.3019 5.3962-0.7134 4.3962 0.55985 4.4408 6.7418 0.23645zm210.93-2.1252c-0.63538-0.25707-1.9023-0.27272-2.8154-0.0348-0.91311 0.23794-0.39325 0.44827 1.1552 0.4674 1.5485 0.0191 2.2956-0.17555 1.6602-0.43263zm-176.08-1.2614c0.76249 0 1.1246-0.42346 0.80477-0.94101-0.37962-0.61423-1.1708-0.6257-2.2782-0.033-0.93313 0.4994-1.9633 0.64132-2.2892 0.31536-0.32595-0.32594-0.59263-0.0547-0.59263 0.60268 0 0.70439 0.60967 0.96134 1.4845 0.62565 0.81646-0.31331 2.1083-0.56965 2.8708-0.56965zm144.47-6.1001c1.4786-3.3675 1.0947-3.8071-3.993-4.5719l-3.9164-0.58879 1.395 2.7963c0.76725 1.538 1.7906 3.0408 2.274 3.3396 0.48348 0.2988 0.90764 1.8909 0.94257 3.538 0.0631 2.9722 0.071 2.9771 1.0626 0.64847 0.54947-1.2904 1.5553-3.6131 2.2352-5.1616zm-150.1-2.3462c1.6162 0 1.3262-2.3372-0.9769-7.8734l-1.2143-2.9191-0.69352 3.9836c-0.38144 2.191-1.0821 4.2238-1.557 4.5173-0.47492 0.29352-1.504 1.7722-2.2868 3.2861l-1.4233 2.7524 3.3355-1.8734c1.8345-1.0304 4.0019-1.8734 4.8164-1.8734zm47.733-17.371c-0.69737-3.092-1.5436-6.5092-1.8806-7.5936-0.38804-1.2488-0.0536-2.5308 0.9124-3.4967 1.308-1.308 1.3638-2.0633 0.39175-5.3076-0.62331-2.0804-0.95577-3.9601-0.73881-4.177 0.21697-0.21697 2.0795-0.53099 4.1389-0.69781 4.1572-0.33676 4.2123-0.1802 2.8646 8.143l-0.60785 3.7539 1.8157-3.7539c0.99863-2.0646 2.0606-4.4966 2.3598-5.4044 0.29928-0.90775 1.6512-2.1549 3.0042-2.7713 2.2808-1.0392 2.6931-0.85126 5.6572 2.5787 3.7334 4.3201 4.2392 3.3432 0.85093-1.6431-1.2904-1.899-2.3462-4.0634-2.3462-4.8098 0-1.5766-2.0853-2.6035-3.4639-1.7057-0.52113 0.33936-1.4479 1.5672-2.0595 2.7286-1.6616 3.1552-3.591 2.5669-5.8033-1.7696-1.603-3.142-1.7406-4.0316-0.72294-4.671 0.69141-0.43437 1.8906-0.59788 2.6648-0.36336 0.77424 0.23452 2.0412-0.0184 2.8154-0.56211 1.245-0.87427 1.2461-1.0522 9e-3 -1.5397-0.76929-0.30315-2.5562-1.7087-3.971-3.1235-2.3193-2.3193-2.471-2.8627-1.5428-5.5254 0.56619-1.6242 0.80609-3.1764 0.53312-3.4494-0.79907-0.79872-5.3519 2.5632-5.3519 3.9517 0 1.7866-3.0594 3.2098-6.9001 3.2098-1.7983 0-3.9376 0.25633-4.7541 0.56964-2.0805 0.79837-1.8502 2.9417 0.39248 3.6535 2.5822 0.81956 2.3534 3.7121-0.46924 5.9324-2.8355 2.2304-2.8919 2.6215-0.46924 3.255 2.5457 0.66571 2.3619 2.2295-0.43421 3.6945-2.0902 1.0952-2.1986 1.4345-1.1334 3.5493 0.9569 1.8998 1.8742 2.3383 4.892 2.3383h3.7142l0.8006 4.6924c0.44032 2.5808 1.1465 5.537 1.5693 6.5693s1.0467 3.1415 1.3864 4.6871c0.57698 2.625 2.2768 5.5467 2.8775 4.946 0.14644-0.14644-0.30432-2.7961-1.0017-5.8882zm-5.5088-22.704c-0.32594-0.32596-0.59263-2.2083-0.59263-4.183 0-4.3431 3.0462-8.297 6.3921-8.297 2.117 0 2.2561 0.26888 1.7506 3.3839-0.30203 1.8612-1.2019 4.3802-1.9998 5.5978-1.6324 2.4914-4.6533 4.3953-5.5504 3.4982zm4.0998-7.843c0-0.4857-0.42232-0.88309-0.93848-0.88309s-0.93848 0.6584-0.93848 1.4631 0.42232 1.2021 0.93848 0.88309 0.93848-0.97741 0.93848-1.4631zm84.463 33.941c0-0.46094-0.69321-1.1041-1.5404-1.4292-1.288-0.49427-1.3461-0.35694-0.35434 0.83807 1.3515 1.6285 1.8948 1.798 1.8948 0.59113zm-14.682-7.2167c1.7864-0.68551 1.0778-2.8665-2.0221-6.2237-3.3315-3.608-4.2395-2.3383-1.8479 2.5842 1.1186 2.3025 2.1264 4.1864 2.2394 4.1864 0.11301 0 0.84682-0.24611 1.6307-0.54691zm-6.9026-1.2764c0-0.48666-0.88845-2.3906-1.9743-4.2311-2.4516-4.1552-1.8488-5.9321 2.1428-6.317 2.8713-0.27685 2.9731-0.39839 1.429-1.7058-4.1786-3.5381-4.6569-4.1418-3.5685-4.5046 0.60266-0.20088 1.7252 0.15718 2.4946 0.79569 1.6531 1.372 1.8364 1.2226 2.6471-2.1566 0.69734-2.9068 0.19034-3.0944-3.1705-1.1731-3.4414 1.9673-6.5694 1.7936-6.5694-0.36479 0-1.2827 0.90768-1.9428 3.2847-2.3887 1.8066-0.33891 3.2847-0.96157 3.2847-1.3837s-2.3169-1.4962-5.1487-2.387c-3.8355-1.2064-5.8903-2.5557-8.0559-5.2901-3.1764-4.0106-4.6264-4.6183-4.6264-1.9391 0 2.9018-3.2338 4.8844-9.7195 5.9592-3.3987 0.56319-5.9558 1.3859-5.6824 1.8283 0.27339 0.44236 1.2651 0.80431 2.2037 0.80431s2.1932 0.58622 2.7878 1.3027c0.84506 1.0182 0.56275 1.9188-1.2928 4.124-2.9441 3.4988-2.9544 3.9581-0.0889 3.9581 5.2391 0 8.1 2.9558 11.354 11.731 0.67298 1.8146 0.71517 1.8076 1.2708-0.21371 0.62817-2.2853 3.4184-5.889 4.554-5.8819 0.82684 6e-3 6.5255 5.2981 8.9155 8.2807 1.6866 2.1047 3.5285 2.7067 3.5285 1.1532zm-14.546-13.291c-3.097-2.1173-6.1424-4.4978-6.7676-5.29-3.0104-3.8145 4.7827-7.5248 9.4212-4.4855 2.1897 1.4348 4.385 7.5756 4.385 12.266 0 2.0329-0.87488 1.7234-7.0386-2.4906zm3.2847-3.0861c0-0.20286-0.65541-0.62033-1.4565-0.92773-0.83517-0.32048-1.2119-0.16315-0.88308 0.36883 0.55113 0.89175 2.3396 1.319 2.3396 0.5589zm-59.526 11.854c-0.31231-0.31232-1.0852-0.0505-1.7174 0.58177-0.90716 0.90716-0.85438 1.3341 0.25026 2.0243 0.99725 0.62311 1.4912 0.45578 1.7175-0.58177 0.17467-0.80106 0.06203-1.712-0.25026-2.0243zm60.934 2.5917c-0.31901-0.51616-1.847-0.93848-3.3954-0.93848-1.638 0-2.5729 0.39248-2.2354 0.93848 0.319 0.51616 1.847 0.93848 3.3954 0.93848 1.638 0 2.5729-0.39248 2.2354-0.93848zm20.571-4.4578c-1.7982-4.0466-2.3234-6.6092-2.0997-10.246 0.23352-3.7973 0.0436-4.638-0.87486-3.8736-1.9902 1.6561-1.303 7.5072 1.6032 13.65 3.484 7.3646 4.6061 7.7486 1.3714 0.46924zm-34.691-0.46924c-2.2863-2.7279-10.749-7.2147-10.749-5.6989 0 1.0996 6.0507 6.1317 8.9155 7.4146 4.287 1.9198 4.6198 1.6084 1.8337-1.7158zm70.452-2.5445c-0.30665-0.49618-2.1264-1.1473-4.0439-1.447-1.9175-0.29968-4.7225-0.74275-6.2334-0.9846-4.7551-0.76118-1.6919 0.81096 3.9368 2.0205 6.8776 1.4779 7.0049 1.4861 6.3405 0.41115zm-151.25-5.6386c-0.63137-0.63137-2.1932 2.049-2.1707 3.7253 0.01095 0.81612 0.56423 0.42232 1.3166-0.93706 0.71372-1.2896 1.0981-2.5443 0.85419-2.7882zm161.55 2.8491c-1.0323-0.41647-3.2495-1.0567-4.927-1.4228-2.4346-0.53127-3.05-0.36647-3.05 0.81671 0 1.1701 1.0378 1.4698 4.927 1.4228 3.4673-0.0419 4.371-0.28382 3.05-0.81673zm21.538 0.0734c-0.49035-0.44157-3.8187-2.8191-7.3962-5.2834s-6.9561-4.8559-7.5078-5.3146c-4.664-3.8782-5.6689-4.5533-6.7776-4.5533-0.69526 0-1.2641-0.39215-1.2641-0.87144 0-1.2939-2.766-3.8209-4.1822-3.8209-0.67801 0-1.9593 1.1089-2.8474 2.4642-1.3302 2.0301-1.3905 2.6063-0.34256 3.2703 2.0496 1.2987 3.8748 0.97984 3.2789-0.57292-1.0165-2.649 0.56814-2.0135 10.193 4.0879 8.2828 5.2504 9.6388 8.7848 1.846 4.8119-2.1652-1.1039-3.845-1.495-4.0305-0.93847-0.47205 1.4161-3.5188 1.1555-4.82-0.41237-0.6238-0.75163-0.86174-1.8074-0.52876-2.3462 0.39523-0.6395-1.3789-0.97958-5.1103-0.97958-6.4739 0-7.8076-1.2947-5.2907-5.1358 0.83099-1.2683 1.5109-2.532 1.5109-2.8082 0-0.89678-4.0087-0.5314-7.3597 0.67084-2.6158 0.93848-3.3487 0.93848-3.6641 0-0.21688-0.6452-0.82625-1.1731-1.3542-1.1731-0.52792 0-2.5735-1.278-4.5457-2.84-3.5466-2.809-3.5892-2.817-3.889-0.7361-0.16672 1.1572-1.7381 3.0686-3.492 4.2478l-3.1888 2.1438h2.7665c3.434 0 5.0189 1.5036 5.0189 4.7614v2.509l3.2541-1.5236c1.8928-0.88623 3.2669-2.223 3.2847-3.1954 0.0396-2.1677 2.4802-3.0848 4.2657-1.603 1.8978 1.575 1.7531 2.7338-0.4429 3.5462-2.2971 0.84977-1.6481 1.7688 3.9246 5.5566 3.8226 2.5984 4.5456 2.8097 5.258 1.5369 0.85421-1.5264 3.9354-1.1705 12.13 1.4009 2.1042 0.66035 3.05 0.65342 3.05-0.0223 0-0.56798 1.0842-0.76266 2.5808-0.4634 5.6688 1.1336 12.318 3.0215 12.983 3.6861 0.38678 0.38678 1.3508 0.70323 2.1422 0.70323 0.8664 0 1.0842-0.31946 0.54744-0.80286zm-41.821-4.9694c-2.5053-2.0884-3.7762-2.5299-5.9948-2.0826-5.5365 1.1165-5.3362 2.6509 0.47415 3.6325 2.062 0.34836 3.749 0.9892 3.749 1.4241 0 1.1026 4.1413 1.5847 4.5871 0.53398 0.20016-0.47175-1.0668-2.0504-2.8154-3.508zm-71.478-1.0375 1.803-3.0559-3.6141-1.7266c-4.5924-2.194-6.926-1.5455-5.3606 1.4897 0.97243 1.8855 4.597 6.3486 5.1557 6.3486 0.11713 0 1.0243-1.3751 2.016-3.0559zm-66.104-1.6219c0.27206-1.0404 0.11188-1.8916-0.35596-1.8916s-0.85062 0.38778-0.85062 0.86172c0 0.47395-0.28292 1.599-0.62872 2.5002-0.39536 1.0303-0.26324 1.4125 0.35596 1.0299 0.54157-0.33471 1.2073-1.4598 1.4793-2.5002zm121.63-4.7935c-2.0223-1.2807-2.7076-1.013-2.7076 1.058 0 1.6594 0.26283 1.7693 2.0037 0.83761 1.6009-0.85679 1.7424-1.2379 0.70386-1.8956zm-97.494-1.3766c0-0.80471-0.42232-1.2021-0.93848-0.88309s-0.93848 0.97741-0.93848 1.4631 0.42231 0.88309 0.93848 0.88309 0.93848-0.6584 0.93848-1.4631zm42.412-6.0866c3.5141-2.0877 6.3893-3.9938 6.3893-4.2357 0-0.73343-6.8631 2.3757-8.4858 3.8442-0.83378 0.75455-2.612 1.3719-3.9515 1.3719-2.6151 0-4.549-2.023-9.1952-9.6194-2.4068-3.935-3.1077-4.4578-5.9765-4.4578-1.7875 0-3.5389 0.46756-3.8921 1.039-0.43636 0.70605 0.0267 0.82676 1.4447 0.37667 1.7136-0.54387 2.9196 0.23544 6.7429 4.3572 2.5608 2.7608 5.3124 6.3921 6.1147 8.0696 0.80225 1.6775 2.125 3.0501 2.9394 3.0501 0.81445 0 4.356-1.7081 7.8701-3.7958zm32.667 2.8341c0-0.52893-1.0667-1.3672-2.3704-1.8629-1.3037-0.49567-3.279-1.7477-4.3895-2.7823-2.4992-2.3283-3.0282-1.9357-1.6038 1.1903 1.0769 2.3636 4.7883 4.0586 6.5299 2.9822 0.49242-0.30434 0.89531-0.10611 0.89531 0.44052 0 0.54662 0.21116 0.99387 0.46924 0.99387s0.46924-0.43277 0.46924-0.96171zm9.3848 0.0232c1.1802-0.76272 1.1197-0.91206-0.37446-0.92411-2.3895-0.0192-18.343-10.477-18.372-12.043-0.0341-1.8433 3.1671-0.6109 11.087 4.2684l6.8865 4.2427 4.6099-4.5406c4.5764-4.5076 5.5639-6.4829 3.5729-7.1466-1.6829-0.56096-9.1482-21.956-11.163-31.992l-1.0908-5.4344-7.1974 0.27273-7.1974 0.27273-0.25372 18.9c-0.22746 16.944-0.42172 18.956-1.877 19.446-0.89278 0.30055-2.2567 0.93793-3.031 1.4164s-2.4635 1.2875-3.7539 1.7979l-2.3462 0.92791 2.6531 0.69545c1.6545 0.4337 3.5055 0.23925 4.9179-0.51661 1.9597-1.0488 2.5453-0.97012 4.3471 0.58397 3.0877 2.6631 3.5414 2.9922 9.6668 7.0111 6.0218 3.951 6.7342 4.1717 8.9155 2.762zm-31.246-3.5294c1.1385-1.3735 1.8546-2.7128 1.5913-2.9761-0.2633-0.26331-0.77251-0.0193-1.1316 0.54224-0.35906 0.56154-2.7644 2.1496-5.3452 3.529l-4.6924 2.508 3.7539-0.55296c2.4728-0.36423 4.4604-1.4052 5.824-3.0503zm43.446-1.163c0-0.51616-0.18624-0.93848-0.41385-0.93848-0.22762 0-0.67486 0.42232-0.99387 0.93848s-0.13278 0.93848 0.41385 0.93848c0.54662 0 0.99387-0.42232 0.99387-0.93848zm16.207 0.32289c-0.63537-0.25706-1.9023-0.27271-2.8154-0.0348-0.91311 0.23794-0.39325 0.44827 1.1552 0.46739 1.5485 0.0192 2.2956-0.17555 1.6602-0.43262zm-71.971-2.0342c1.7021-1.5857 12.374-7.0809 15.273-7.8645 0.99525-0.26902 1.2604-3.1885 1.2217-13.45-0.0554-14.666 0.75827-21.674 2.4753-21.318 0.62255 0.12904 1.131-0.71559 1.1298-1.877-2e-3 -2.0421-0.34175-2.1222-10.323-2.4339-10.569-0.33006-12.007 0.17781-9.0052 3.18 1.1289 1.1289 1.0063 2.2864-0.86259 8.1446-1.1982 3.7558-4.5369 11.439-7.4194 17.074-5.8579 11.452-5.93 9.8727 0.7864 17.205 3.2155 3.5102 4.186 3.7034 6.7241 1.3388zm80.165-0.11096c-1.8066-0.36736-4.3405-0.97413-5.6309-1.3484-2.2516-0.65301-2.2727-0.62171-0.52449 0.77585 1.0441 0.83465 3.4477 1.4102 5.6309 1.3484l3.8092-0.10793-3.2847-0.66792zm-28.154-2.4009c1.2123-1.2904 1.993-2.3462 1.7349-2.3462s-1.4611 1.0558-2.6734 2.3462-1.993 2.3462-1.7349 2.3462 1.4611-1.0558 2.6734-2.3462zm-40.235-0.23462c1.1914-1.5192 1.1472-1.5391-0.58895-0.26556-1.0323 0.75723-2.0529 1.4963-2.268 1.6423-0.21506 0.14605 0.0499 0.26556 0.58895 0.26556 0.53899 0 1.5596-0.73905 2.268-1.6423zm-42.82-1.8406c1.7449-1.2217 1.6789-1.2693-0.93848-0.67607-1.5485 0.35094-3.4123 1.1976-4.1419 1.8815-1.1193 1.0493-0.97278 1.1548 0.93848 0.67608 1.2457-0.31206 3.1095-1.1588 4.1419-1.8815zm101.36 1.0661c-1.0323-0.78025-2.9327-1.6697-4.2232-1.9765-1.2904-0.30683-2.8741-0.97368-3.5193-1.4819-0.83232-0.65558-1.1731-0.49752-1.1731 0.54409 0 0.93423 1.621 1.9643 4.4578 2.8326 5.8312 1.785 6.7332 1.8015 4.4578 0.0816zm1.578-6.2641c-8.9564-9.1426-13.05-15.253-20.329-30.347-3.4766-7.2088-4.4492-8.5151-6.2886-8.4463-3.2582 0.12194-2.6448-2.2404 1.0405-4.0073 1.7691-0.84818 3.4048-2.1206 3.635-2.8277 0.34037-1.0456-0.87304-1.1729-6.5012-0.68194-15.239 1.3293-35.007 1.6726-40.126 0.69691-11.011-2.0986-12.309-2.1791-12.309-0.76334 0 0.77551 2.4603 2.2695 5.8655 3.5618 5.4703 2.076 7.1462 2.226 24.874 2.226h19.009l0.87264 2.8154c0.47996 1.5485 1.0623 3.6601 1.2942 4.6924 0.37768 1.6818 0.43285 1.6574 0.53039-0.23462 0.23185-4.4971 2.5737-1.7357 5.1812 6.1096 2.6696 8.0321 6.4786 15.995 10.976 22.945 1.737 2.6845 3.648 4.0291 8.3524 5.8768 3.3551 1.3178 6.7336 2.8067 7.5078 3.3087 2.7602 1.7897 2.0865 0.86393-3.5836-4.924zm-11.432 2.5322c0-0.16764-1.3077-1.7034-2.906-3.4128s-3.6948-4.9028-4.659-7.0965-1.9498-3.9885-2.1902-3.9885c-0.88191 0 1.2984 5.9408 2.782 7.5801 0.8415 0.92985 1.53 3.115 1.53 4.856 0 2.959 0.17744 3.1393 2.7216 2.7659 1.4969-0.2197 2.7216-0.5366 2.7216-0.70424zm-85.401-4.4585c5.2405-2.5779 6.4402-3.662 8.5138-7.6932 1.3276-2.5808 3.6377-7.0151 5.1337-9.854 2.8493-5.4071 5.6558-11.884 6.9746-16.097 0.67554-2.1579 0.48577-2.5451-1.4268-2.9107-2.4663-0.47147-4.1796 0.78446-4.1796 3.0639 0 3.4178-10.309 21.761-16.299 29.001-3.4534 4.1742-5.9499 7.5672-5.5479 7.5401 0.40201-0.0271 3.476-1.3996 6.831-3.05zm21.988-25.055 0.61387-2.3462-1.4136 2.3462c-1.5754 2.6148-1.9864 4.6712-0.64712 3.2378 0.45815-0.49036 1.1092-1.9473 1.4469-3.2378zm22.742-3.9885c-0.26034-0.6452-0.47335-0.11731-0.47335 1.1731 0 1.2904 0.21301 1.8183 0.47335 1.1731 0.26035-0.6452 0.26035-1.701 0-2.3462zm20.025-18.494c11.912-1.2903 18.648-5.1054 17.449-9.8829-0.85296-3.3985-1.8564-2.9523-5.2485 2.334-4.1214 6.4227-6.5391 6.4069-9.3214-0.0608-1.1246-2.6142-2.4927-4.6039-3.0402-4.4214-0.54747 0.18248-1.9205 2.6382-3.0511 5.457-1.4804 3.6909-2.6167 5.2072-4.0601 5.4181-3.2428 0.47377-6.561-1.8833-8.9133-6.3315-1.2087-2.2858-2.6013-4.2887-3.0945-4.451-0.49326-0.1623-1.6545 1.5475-2.5805 3.7995-0.92605 2.252-2.6761 5.0269-3.889 6.1664-2.8292 2.6579-4.2318 1.8167-9.8842-5.9281l-4.1952-5.7482-0.6177 4.832c-0.78455 6.1375-1.4617 7.1794-4.3117 6.6346-1.5381-0.29403-1.9945-0.12823-1.3689 0.49734 2.283 2.283 30.943 3.3299 46.128 1.685zm-50.237-6.2721c-1.2748-1.8786-2.3179-3.779-2.3179-4.2232 0-0.44414-0.42231-0.80752-0.93848-0.80752-2.0734 0-0.75373 3.7635 2.1116 6.0217 1.6775 1.3221 3.1429 2.4085 3.2564 2.4142 0.11349 6e-3 -0.83671-1.5266-2.1116-3.4052zm43.614-2.8505c1.2234-2.4895 3.0442-5.7052 4.0461-7.1461 2.2754-3.272 3.4648-2.4679 6.8106 4.6045l2.402 5.0774 4.022-5.8773c4.824-7.0492 6.574-7.7222 8.095-3.1134 1.8216 5.5196 3.8322 3.98 6.0819-4.6572 1.7109-6.5685 1.8577-14.867 0.36783-20.784l-1.0751-4.2694-1.2258 2.9154c-2.0105 4.7815-4.5529 3.8783-7.6165-2.7057-1.4385-3.0916-3.1502-5.6255-3.8038-5.6309-1.198-0.01-2.7266 2.9411-5.0992 9.8442-1.9922 5.7964-4.2738 5.4596-9.243-1.3642-2.2727-3.1209-4.5647-5.662-5.0933-5.647-0.52866 0.015-2.7917 2.5489-5.029 5.6309-5.4779 7.5459-7.6476 7.4954-11.24-0.26198-2.6443-5.7108-4.3516-5.6583-8.927 0.2746-5.4353 7.048-8.876 6.3367-10.408-2.1516-0.82676-4.58-2.4415-4.4098-4.7734 0.50325-2.514 5.2968-4.4499 5.4764-7.1546 0.66398-1.8936-3.3692-2.314-3.6678-3.2878-2.336-0.61415 0.8399-1.8292 4.4348-2.7001 7.9887-1.472 6.0065-1.4757 6.8913-0.0532 12.563 0.84164 3.356 2.1133 7.2257 2.826 8.5993l1.2957 2.4975 0.31392-2.209c0.55987-3.9398 3.0856-3.0918 5.8345 1.9586 1.4155 2.6008 2.7239 4.7287 2.9076 4.7287s0.93766 0.23168 1.6756 0.51484c0.96725 0.37118 1.8033-0.9529 2.996-4.7447 1.4968-4.7587 1.8849-5.2322 4.0756-4.9726 1.941 0.23002 3.1613 1.6652 6.1521 7.2355l3.7309 6.9486 1.7211-2.1255c0.94662-1.169 1.7211-2.7122 1.7211-3.4293 0-0.71707 0.37109-1.3038 0.82463-1.3038 0.45353 0 1.3561-1.2831 2.0057-2.8513 1.8314-4.4214 7.493-6.2794 7.493-2.4591 0 1.521 3.5467 9.9111 4.9183 11.635 1.2763 1.6039 1.8549 1.0605 4.4127-4.1442zm10.377-35.598c0-1.7831 2.7516-7.1903 4.1195-8.0953 2.1185-1.4016 6.0641-0.7599 6.6485 1.0813 0.31414 0.98976 1.4208 2.8797 2.4593 4.2 1.5636 1.9879 2.1812 2.2174 3.5934 1.3354 1.5765-0.98452 1.3904-1.479-2.4632-6.5462-2.2927-3.0146-4.5816-5.4812-5.0864-5.4812s-2.2695 0.70003-3.9214 1.5556c-3.2358 1.6759-25.205 4.9182-30.072 4.4381-20.596-2.0314-26.893-3.3574-26.893-5.6633 0-1.5897-0.0287-1.5911 12.669 0.62431 10.087 1.7598 36.383 0.77179 41.388-1.5551l3.8489-1.7893-2.2925-1.7292c-2.1908-1.6525-2.4656-1.6576-6.1951-0.11416-5.2394 2.1683-26.091 3.0223-33.934 1.3899-10.929-2.2747-13.228-2.2487-15.445 0.1748-1.1068 1.2095-2.9893 3.2549-4.1833 4.5453-3.1276 3.38-3.5033 5.2512-1.541 7.6745 1.5794 1.9505 1.9396 2.0227 4.1605 0.83408 1.3373-0.7157 2.666-2.0402 2.9526-2.9432 0.28662-0.90307 1.1382-2.1541 1.8925-2.7801 2.1161-1.7562 3.8702 0.32585 4.4256 5.2532 0.26375 2.34 0.74996 4.5249 1.0805 4.8554 0.33052 0.3305 2.6117-1.3796 5.0693-3.8003 5.7-5.6142 7.6811-5.6451 11.442-0.17804 1.5981 2.3227 3.0878 4.2232 3.3104 4.2232 0.22265 0 2.1566-1.9004 4.2976-4.2232 5.5356-6.0054 8.5768-5.8916 13.348 0.49944 3.3456 4.4813 5.3212 5.3033 5.3212 2.214zm-6.9763-20.166c6.874-1.27 7.3459-1.5511 5.5758-3.3212-0.77821-0.77821-1.4149-2.4405-1.4149-3.6941 0-2.6904 0.48065-2.6628-8.6563-0.49624-5.9589 1.413-8.7778 1.5777-15.843 0.92575-4.727-0.43618-9.9163-1.041-11.532-1.3441-2.6747-0.50179-3.0753-0.24635-4.4826 2.8586-1.8328 4.0437-1.8379 4.0402 7.3528 5.1081 9.7208 1.1295 22.777 1.1129 29-0.0369zm-2.6431-10.824c3.2153-0.86165 2.5532-2.47-0.72081-1.751-3.829 0.841-25.084 0.87305-28.861 0.0435-1.8634-0.4093-3.0305-0.29839-3.0305 0.28795 0 0.52447 1.3725 1.1239 3.05 1.3321 5.0612 0.6281 27.299 0.69383 29.562 0.0874zm-25.006-4.2911c8.1727 1.0435 25.63 0.18211 27.148-1.3395 0.78669-0.78831-2.6344-0.9451-13.329-0.61087-8.4081 0.26278-16.131 0.0429-18.585-0.52907-4.8434-1.1292-5.1195-1.0128-4.2317 1.7845 0.44572 1.4043 0.88277 1.7072 1.3568 0.94025 0.52517-0.84975 2.4271-0.91081 7.6398-0.24526zm34.101-8.3028c2.5356-2.4746 2.6574-2.8842 1.5009-5.0452-1.524-2.8477-2.3136-2.4597-4.7622 2.3401-1.2336 2.418-2.5232 3.6902-3.7405 3.6902-1.0218 0-1.8579-0.3577-1.8579-0.79488s-0.84463-1.7688-1.877-2.959c-1.0323-1.1903-1.877-2.9442-1.877-3.8975 0-2.6959-1.086-2.106-5.4483 2.9595-2.2223 2.5806-4.6594 4.6919-5.4156 4.6919s-2.7145-1.9004-4.3517-4.2232c-3.3372-4.7345-3.9981-5.0233-5.4194-2.3677-2.0341 3.8006-4.3313 4.0452-7.972 0.84867-3.2452-2.8493-3.4161-2.8911-5.2053-1.2719-2.5663 2.3225-2.3214 3.7351 1.0657 6.1469 3.7399 2.663 13.82 3.6709 30.4 3.0397 11.887-0.45255 12.271-0.53353 14.96-3.1577zm-21.177-5.4669c0.96781-0.96781 2.3403-1.9529 3.05-2.1891 1.8386-0.61186 2.6306-40.06 1.5409-76.747-0.4674-15.736-0.94829-28.709-1.0686-28.829s-1.7522 0.03-3.6262 0.3341l-3.4074 0.55294-0.54449 6.2221c-0.29946 3.4222-0.9511 10.445-1.4481 15.607-0.49696 5.1616-1.1439 25.33-1.4376 44.819l-0.53405 35.434 2.5001 3.2778c1.375 1.8028 2.6611 3.2778 2.858 3.2778 0.19681 0 1.1497-0.79184 2.1175-1.7596zm17.126-4.3844c1.1673-2.6389 2.2377-8.8178 3.1084-17.945 1.1389-11.937 1.1422-15.858 0.0237-27.528-1.561-16.285-2.6755-24.372-4.6559-33.785-0.81445-3.8712-1.8884-9.9948-2.3865-13.608-1.5576-11.298-1.6384-11.509-4.2269-11.014-1.9598 0.37464-2.3021 0.9671-2.3021 3.9851 0 3.1945 0.93052 14.018 2.4195 28.144 0.29925 2.8389 0.53469 19.453 0.52319 36.92-0.02 30.46 0.0603 31.925 1.9674 35.85 1.0936 2.2508 2.3844 3.8476 2.8686 3.5484 0.48416-0.29924 1.6815-2.3552 2.6607-4.5689zm-31.266 3.0764c1.9872-2.3944 2.9156-13.999 3.4337-42.918 0.55391-30.921 1.5006-46.203 3.7875-61.136 0.32001-2.0896-0.0201-2.5484-2.1574-2.91-1.3955-0.23611-3.1567-0.59791-3.9136-0.80399-1.0438-0.28417-1.5206 0.89676-1.9736 4.8879-0.3285 2.8944-0.85495 5.6795-1.1699 6.1891-0.57203 0.92555-2.483 20.992-4.3613 45.796-1.4108 18.631-1.3859 45.798 0.0445 48.513 1.9053 3.6165 4.4792 4.5881 6.3102 2.3819zm-12.053-4.3786c0.56582-1.0573 0.9715-8.8258 0.9715-18.604 0-21.357 1.5875-49.452 3.274-57.944 0.71758-3.6131 1.7848-10.999 2.3717-16.412 0.58686-5.4136 1.5112-10.117 2.054-10.453 1.0298-0.63648 0.23869-2.6968-1.0356-2.6968-1.0906 0-2.726 5.9394-4.3755 15.891-0.80701 4.8686-1.8315 9.5326-2.2767 10.364-0.44517 0.83182-1.9219 10.785-3.2816 22.118-2.8112 23.431-3.6403 53.67-1.5749 57.441 1.4188 2.59 2.5972 2.6802 3.873 0.29632zm53.329-0.47186c3.4812-7.6403 1.9832-39.064-3.2239-67.629-1.7877-9.8071-3.9385-22.16-4.7795-27.45-1.4292-8.991-1.6711-9.6194-3.7026-9.6194-2.1364 0-3.0307 1.4204-1.2802 2.0334 0.49131 0.17205 1.2929 2.6356 1.7814 5.4744 0.48844 2.8389 1.5624 9.1736 2.3866 14.077 0.82416 4.9036 2.4508 14.406 3.6149 21.116 1.8392 10.602 2.092 15.056 1.9298 34.005-0.10259 11.993-0.56376 23.184-1.0248 24.87-0.46104 1.6854-0.65864 3.5923-0.4391 4.2375 0.67778 1.992 3.6396 1.2955 4.7374-1.114zm-10.829-107.08c0.90329-0.349 1.6423-1.4892 1.6423-2.5339 0-1.6937-0.38107-1.8235-3.5193-1.1988-1.9356 0.38529-4.6807 0.81008-6.1001 0.94396s-2.8976 0.33991-3.2847 0.45784c-2.3414 0.71322-16.24-0.37271-18.884-1.4755-4.033-1.6819-5.7509-1.6721-5.7509 0.0326 0 1.7352 0.62999 2.0931 6.7041 3.8089 3.689 1.0421 8.0239 1.3108 16.289 1.0097 6.194-0.22567 12.001-0.69585 12.904-1.0448zm-13.335-8.6454c-0.35648-1.9356-1.1444-4.4417-1.7509-5.5692-0.60654-1.1274-1.1603-3.4502-1.2306-5.1616-0.0995-2.4227-0.20678-2.5922-0.4845-0.76555-0.19619 1.2904-0.75127 3.8243-1.2335 5.6309-0.48226 1.8066-1.1169 4.446-1.4103 5.8655-0.64024 3.0971-4.2517 3.742-4.2517 0.75924 0-1.0019-0.3667-2.0482-0.81488-2.3252-0.44819-0.27699-1.1039-3.0581-1.4571-6.1803-0.78631-6.9501-2.4204-6.5516-2.4204 0.59017 0 2.8424-0.42969 5.9708-0.95486 6.9521-0.82096 1.534-0.52486 1.9083 2.1116 2.6691 1.6865 0.4867 5.6492 0.923 8.8059 0.96955l5.7395 0.0847-0.64815-3.5193zm8.6347 1.4077c0.23513-0.6452-0.12296-2.44-0.79574-3.9885-1.1891-2.7369-1.2248-2.75-1.28-0.46924-0.0666 2.7574-0.89986 4.207-2.8434 4.9468-0.77425 0.29473-0.0803 0.56921 1.5419 0.60996 1.6223 0.0407 3.142-0.4538 3.3772-1.099zm5.3898-3.7539c-0.0109-2.3145-0.23376-2.7106-0.92411-1.6423-1.192 1.8446-1.192 4.6924 0 4.6924 0.51616 0 0.93201-1.3725 0.92411-3.05zm-31.982-5.1616c1.1382-4.3418 2.8961-23.066 2.9005-30.893 4e-3 -6.612 0.59768-8.7577 2.4245-8.7577 1.0201 0 1.2393 2.1568 1.0728 10.558-0.11504 5.8068 0.14791 13.514 0.58432 17.127s0.90514 8.3755 1.0416 10.583c0.4061 6.5684 1.171 5.5116 2.358-3.2582 0.61519-4.5448 1.5096-11.106 1.9876-14.581 0.47801-3.4745 0.81649-6.6419 0.75217-7.0386-0.0643-0.3967-0.0669-4.6277-6e-3 -9.4022 0.0933-7.2904 0.35198-8.6809 1.6147-8.6809 1.3188 0 1.4827 1.7009 1.3337 13.843-0.18418 15.009-0.0526 16.217 3.347 30.735l0.65924 2.8154 0.86256-3.2847c0.47441-1.8066 1.0994-11.837 1.3888-22.289 0.50156-18.112 0.61322-19.004 2.3772-19.004 1.6979 0 1.8008 0.44606 1.2448 5.3962-0.33338 2.9679-0.10986 10.253 0.4967 16.189s1.2238 13.255 1.3716 16.264c0.14782 3.0095 0.45688 5.6599 0.68678 5.8898 1.0816 1.0816 1.5728-12.75 0.6965-19.611-1.7542-13.735-2.7028-36.364-2.3369-55.753 0.33661-17.838 0.25469-18.988-1.3907-19.51-1.0273-0.32605-2.1137-1.9913-2.6343-4.0378l-0.8862-3.4829-1.9807 4.4578c-1.6938 3.8121-2.3681 4.4578-4.6557 4.4578-2.1331 0-2.9923-0.66537-4.2413-3.2847-1.9321-4.0517-3.34-4.1876-4.0984-0.39583-0.36341 1.8171-1.3694 3.1898-2.7115 3.7001-2.3964 0.9111-2.7346 3.107-3.6827 23.912-0.44926 9.8585-1.6779 29.712-2.7284 44.086-0.18771 2.5687 0.01 7.4253 0.43864 10.792 0.56778 4.457 0.47206 6.3774-0.35196 7.0607-0.62254 0.51616-1.2278 2.7333-1.345 4.927-0.27719 5.1877 2.0873 5.5131 3.4095 0.46924zm20.517-104.13c2.0268-1.6281 4.9098 0.16091 4.9098 3.0467 0 2.6819-0.19792 2.6117 3.6139 1.2829 3.3558-1.1699 3.3082-0.98672 1.93-7.4126-0.72932-3.4007-1.339-4.5341-2.1116-3.9251-0.59739 0.47092-5.1095 1.0842-10.027 1.3628-8.1187 0.45997-10.934 0.20312-18.979-1.7316-2.5196-0.60592-2.5808-0.52226-2.5808 3.5242 0 2.2797-0.50678 4.6516-1.1262 5.271-0.73373 0.73372-0.77377 1.1262-0.11491 1.1262 0.55619 0 1.5413-0.63868 2.1892-1.4193 1.5723-1.8945 3.4089-0.35448 4.288 3.5957l0.66433 2.9852 1.732-4.0551c1.406-3.2918 2.1314-3.9984 3.8538-3.7539 1.3882 0.19708 2.4462 1.2746 3.0602 3.1167 1.7903 5.371 2.3683 5.5726 4.9141 1.7137 1.3029-1.9749 3.0057-4.1022 3.784-4.7274zm7.4906-10.247c1.1614-0.31123 2.1116-1.1501 2.1116-1.8641 0-0.71404-0.10557-1.2937-0.23462-1.2881-0.12904 0.0056-2.3077 0.63906-4.8415 1.4077-5.2238 1.5847-17.287 1.8508-22.045 0.48627-1.7476-0.50121-3.6452-0.60679-4.217-0.23462-0.57172 0.37217 0.64978 0.93348 2.7144 1.2474 5.0884 0.77356 23.892 0.94769 26.512 0.24552zm0.2709-5.4346c2.0684-0.84769 3.9231-15.889 3.118-25.286l-0.63239-7.3806-4.311 0.74766c-4.8914 0.84833-9.7935 0.93532-19.48 0.34568-3.6974-0.22507-7.0759-0.05801-7.5078 0.37125-1.1804 1.1732-1.619 28.792-0.47536 29.936 2.1358 2.1358 24.778 3.1142 29.288 1.2656zm-0.55201-36.656c6.9251-1.711 6.8676-3.6428-0.0831-2.7904-3.0257 0.37107-5.6421 1.0408-5.8142 1.4884-0.40218 1.0462-6.7257 1.0705-6.7257 0.02586 0-1.2175 4.2974-2.8888 6.2403-2.4268 0.95524 0.22714 2.7926-0.44004 4.083-1.4826 2.2957-1.8548 2.307-1.9256 0.52448-3.2916-2.3268-1.7831-4.6695-1.7786-6.1554 0.011736-1.5575 1.8767-6.5693 1.8767-6.5693 0 0-1.7553 0.0497-1.7584-4.4994 0.27834-3.186 1.4264-3.6204 1.9461-2.8207 3.3751 1.4587 2.6065-0.45959 3.9901-3.5682 2.5738-3.3233-1.5142-3.8499-0.77609-0.84911 1.1901 4.806 3.149 15.935 3.5935 26.237 1.0481z"/>
</svg>
